Newsreader72pt-LightItalic.ufo
<glyph name="quotesingle" format="2">
  <advance width="320.24"/>
  <unicode hex="0027"/>
  <outline>
    <contour>
      <point x="282.24" y="978.0" type="line"/>
      <point x="303.09333333333336" y="978.0" type="line"/>
      <point x="489.06666666666666" y="1389.24" type="line"/>
      <point x="501.32" y="1430.0" type="line"/>
      <point x="366.91999999999996" y="1430.0" type="line"/>
      <point x="354.2933333333333" y="1389.24" type="line"/>
    </contour>
  </outline>
</glyph>
<glyph name="parenright" format="2">
  <advance width="510.0533333333334"/>
  <unicode hex="0029"/>
  <outline>
    <contour>
      <point x="-165.36" y="-218.96" type="curve"/>
      <point x="-146.36" y="-237.33333333333334" type="line"/>
      <point x="367.94666666666666" y="285.62666666666667"/>
      <point x="496.5333333333333" y="545.3333333333333"/>
      <point x="496.5333333333333" y="898.04" type="curve" smooth="yes"/>
      <point x="496.5333333333333" y="1080.1733333333332"/>
      <point x="448.3066666666667" y="1246.04"/>
      <point x="373.36" y="1462.6933333333334" type="curve"/>
      <point x="349.24" y="1454.32" type="line"/>
      <point x="395.37333333333333" y="1286.2133333333331"/>
      <point x="414.0133333333333" y="1147.8"/>
      <point x="414.0133333333333" y="953.8933333333333" type="curve" smooth="yes"/>
      <point x="414.0133333333333" y="643.2533333333333"/>
      <point x="311.28" y="315.12"/>
    </contour>
  </outline>
</glyph>
<glyph name="slash" format="2">
  <advance width="806.4933333333333"/>
  <unicode hex="002F"/>
  <outline>
    <contour>
      <point x="-68.49333333333333" y="0.0" type="line"/>
      <point x="-1.7600000000000016" y="0.0" type="line"/>
      <point x="1000.3599999999999" y="1430.0" type="line"/>
      <point x="933.6266666666667" y="1430.0" type="line"/>
    </contour>
  </outline>
</glyph>
<glyph name="semicolon" format="2">
  <advance width="485.22666666666663"/>
  <unicode hex="003B"/>
  <outline>
    <contour>
      <point x="-116.98666666666666" y="-277.82666666666665" type="curve"/>
      <point x="-104.74666666666667" y="-295.93333333333334" type="line"/>
      <point x="130.66666666666669" y="-139.2"/>
      <point x="214.81333333333333" y="-0.9333333333333336"/>
      <point x="214.81333333333333" y="100.52" type="curve" smooth="yes"/>
      <point x="214.81333333333333" y="158.3733333333333"/>
      <point x="177.33333333333334" y="189.34666666666666"/>
      <point x="127.75999999999999" y="189.34666666666666" type="curve" smooth="yes"/>
      <point x="60.31999999999999" y="189.34666666666666"/>
      <point x="17.626666666666665" y="137.51999999999998"/>
      <point x="17.626666666666665" y="89.81333333333333" type="curve" smooth="yes"/>
      <point x="17.626666666666665" y="58.18666666666666"/>
      <point x="98.97333333333333" y="49.36"/>
      <point x="98.97333333333333" y="-10.106666666666666" type="curve" smooth="yes"/>
      <point x="98.97333333333333" y="-68.96000000000001"/>
      <point x="42.626666666666665" y="-162.56"/>
    </contour>
    <contour>
      <point x="384.3066666666667" y="1039.4933333333333" type="curve" smooth="yes"/>
      <point x="314.24" y="1039.4933333333333"/>
      <point x="265.8" y="986.92"/>
      <point x="265.8" y="920.9866666666667" type="curve" smooth="yes"/>
      <point x="265.8" y="867.4"/>
      <point x="304.02666666666664" y="830.1733333333333"/>
      <point x="360.36" y="830.1733333333333" type="curve" smooth="yes"/>
      <point x="430.4266666666667" y="830.1733333333333"/>
      <point x="478.8666666666666" y="882.7466666666667"/>
      <point x="478.8666666666666" y="948.6800000000001" type="curve" smooth="yes"/>
      <point x="478.8666666666666" y="1002.2666666666667"/>
      <point x="440.64" y="1039.4933333333333"/>
    </contour>
  </outline>
</glyph>
<glyph name="greater" format="2">
  <advance width="1150.0"/>
  <unicode hex="003E"/>
  <outline>
    <contour>
      <point x="970.1733333333334" y="526.3733333333333" type="line"/>
      <point x="68.24000000000001" y="179.95999999999998" type="line"/>
      <point x="48.626666666666665" y="115.0" type="line"/>
      <point x="997.5066666666667" y="484.64000000000004" type="line"/>
      <point x="1013.7466666666667" y="539.36" type="line"/>
      <point x="290.62666666666667" y="909.0" type="line"/>
      <point x="275.0133333333333" y="855.5333333333334" type="line"/>
      <point x="962.9200000000001" y="503.12" type="line"/>
    </contour>
  </outline>
</glyph>
<glyph name="D" format="2">
  <advance width="1457.52"/>
  <unicode hex="0044"/>
  <anchor x="1030.72" y="1430.0" name="UCtop"/>
  <anchor x="613.9200000000001" y="0.0" name="bottom"/>
  <outline>
    <contour>
      <point x="448.66666666666663" y="38.45333333333333" type="curve" smooth="yes"/>
      <point x="129.6" y="38.45333333333333" type="line"/>
      <point x="129.89333333333335" y="0.0" type="line"/>
      <point x="467.90666666666664" y="0.0" type="line" smooth="yes"/>
      <point x="1083.1333333333334" y="0.0"/>
      <point x="1437.3866666666665" y="412.6"/>
      <point x="1437.3866666666665" y="905.0266666666666" type="curve" smooth="yes"/>
      <point x="1437.3866666666665" y="1236.2266666666667"/>
      <point x="1190.9466666666665" y="1430.0"/>
      <point x="800.28" y="1430.0" type="curve" smooth="yes"/>
      <point x="567.2666666666667" y="1430.0" type="line"/>
      <point x="543.7466666666667" y="1391.5466666666666" type="line"/>
      <point x="777.1333333333333" y="1391.5466666666666" type="line" smooth="yes"/>
      <point x="1121.4933333333333" y="1391.5466666666666"/>
      <point x="1312.9599999999998" y="1220.7707936507936"/>
      <point x="1312.9599999999998" y="917.8133333333333" type="curve" smooth="yes"/>
      <point x="1312.9599999999998" y="423.0628592758492"/>
      <point x="999.7866666666666" y="38.45333333333333"/>
    </contour>
    <contour>
      <point x="508.1333333333333" y="1385.04" type="line"/>
      <point x="99.73333333333333" y="44.96" type="line"/>
      <point x="-78.89333333333335" y="14.986666666666666" type="line"/>
      <point x="-83.01333333333334" y="0.0" type="line"/>
      <point x="206.54666666666665" y="0.0" type="line"/>
      <point x="642.8" y="1430.0" type="line"/>
      <point x="344.8666666666666" y="1430.0" type="line"/>
      <point x="340.12" y="1415.0133333333333" type="line"/>
    </contour>
  </outline>
</glyph>
<glyph name="E" format="2">
  <advance width="1245.88"/>
  <unicode hex="0045"/>
  <anchor x="884.3066666666667" y="1430.0" name="UCtop"/>
  <anchor x="925.1333333333332" y="0.0" name="right"/>
  <anchor x="522.5733333333334" y="0.0" name="bottom"/>
  <outline>
    <contour>
      <point x="508.1333333333333" y="1385.04" type="line"/>
      <point x="99.73333333333333" y="44.96" type="line"/>
      <point x="-78.89333333333335" y="14.986666666666666" type="line"/>
      <point x="-83.01333333333334" y="0.0" type="line"/>
      <point x="206.54666666666665" y="0.0" type="line"/>
      <point x="642.8" y="1430.0" type="line"/>
      <point x="344.8666666666666" y="1430.0" type="line"/>
      <point x="340.12" y="1415.0133333333333" type="line"/>
    </contour>
    <contour>
      <point x="1227.8133333333333" y="1407.1599999999999" type="line"/>
      <point x="1272.2533333333333" y="1057.9466666666667" type="line"/>
      <point x="1289.9866666666667" y="1057.9466666666665" type="line"/>
      <point x="1345.1866666666667" y="1477.1066666666668" type="line"/>
      <point x="1340.0666666666666" y="1477.1066666666668" type="line"/>
      <point x="1238.1866666666667" y="1430.0" type="line"/>
      <point x="545.0266666666666" y="1430.0" type="line"/>
      <point x="532.6666666666666" y="1391.5466666666666" type="line"/>
      <point x="1302.68" y="1391.5466666666666" type="line"/>
    </contour>
    <contour>
      <point x="927.4" y="-50.86666666666667" type="line"/>
      <point x="933.7733333333333" y="-50.86666666666667" type="line"/>
      <point x="1162.52" y="368.37333333333333" type="line"/>
      <point x="1148.16" y="378.36" type="line"/>
      <point x="840.1733333333334" y="24.84" type="line"/>
      <point x="939.08" y="38.45333333333333" type="line"/>
      <point x="120.38666666666667" y="38.45333333333333" type="line"/>
      <point x="108.02666666666667" y="0.0" type="line"/>
      <point x="851.1600000000001" y="0.0" type="line"/>
    </contour>
    <contour>
      <point x="842.8" y="460.0133333333333" type="line"/>
      <point x="897.92" y="747.2533333333333" type="line"/>
      <point x="1019.2933333333333" y="1035.8666666666666" type="line"/>
      <point x="1005.1866666666667" y="1035.8666666666666" type="line"/>
      <point x="837.8533333333332" y="776.48" type="line"/>
      <point x="375.7333333333333" y="758.5066666666667" type="line"/>
      <point x="368.1066666666667" y="737.6266666666667" type="line"/>
      <point x="825.9866666666666" y="722.4" type="line"/>
      <point x="829.32" y="460.0133333333333" type="line"/>
    </contour>
  </outline>
</glyph>
<glyph name="G" format="2">
  <advance width="1488.7333333333333"/>
  <unicode hex="0047"/>
  <anchor x="996.5066666666667" y="1430.0" name="UCtop"/>
  <anchor x="738.5066666666667" y="0.0" name="bottom"/>
  <outline>
    <contour>
      <point x="736.9066666666666" y="10.599999999999998" type="curve" smooth="yes"/>
      <point x="455.84000000000003" y="10.599999999999998"/>
      <point x="268.6" y="197.04000000000002"/>
      <point x="268.6" y="536.3333333333333" type="curve" smooth="yes"/>
      <point x="268.6" y="1071.9066666666668"/>
      <point x="606.96" y="1412.7733333333333"/>
      <point x="1027.4399999999998" y="1412.7733333333333" type="curve" smooth="yes"/>
      <point x="1167.2533333333333" y="1412.7733333333333"/>
      <point x="1277.8133333333333" y="1381.6399999999999"/>
      <point x="1374.1066666666666" y="1289.8933333333334" type="curve"/>
      <point x="1314.6933333333334" y="1362.0" type="line"/>
      <point x="1377.0" y="1010.92" type="line"/>
      <point x="1396.9866666666667" y="1010.92" type="line"/>
      <point x="1434.0933333333332" y="1480.8666666666668" type="line"/>
      <point x="1426.7333333333333" y="1480.8666666666668" type="line"/>
      <point x="1322.6933333333334" y="1387.3466666666666" type="line"/>
      <point x="1404.4133333333332" y="1395.08" type="line"/>
      <point x="1306.6666666666665" y="1431.1066666666666"/>
      <point x="1203.3866666666665" y="1450.0"/>
      <point x="1069.1866666666667" y="1450.0" type="curve" smooth="yes"/>
      <point x="573.24" y="1450.0"/>
      <point x="149.39999999999998" y="1097.04"/>
      <point x="149.39999999999998" y="546.3066666666666" type="curve" smooth="yes"/>
      <point x="149.39999999999998" y="203.8"/>
      <point x="376.2133333333333" y="-20.0"/>
      <point x="741.1333333333333" y="-20.0" type="curve" smooth="yes"/>
      <point x="905.9602053419793" y="-20.0"/>
      <point x="1097.84" y="19.4"/>
      <point x="1291.4666666666667" y="86.13333333333334" type="curve"/>
      <point x="1294.7066666666667" y="97.10666666666665" type="line"/>
      <point x="1175.8266666666666" y="97.10666666666667" type="line"/>
      <point x="1327.72" y="595.5333333333333" type="line"/>
      <point x="1475.8666666666666" y="624.3866666666667" type="line"/>
      <point x="1480.9866666666667" y="639.3733333333333" type="line"/>
      <point x="1021.3866666666667" y="639.3733333333333" type="line"/>
      <point x="1016.2666666666667" y="624.3866666666667" type="line"/>
      <point x="1211.8933333333334" y="593.2933333333333" type="line"/>
      <point x="1044.52" y="43.17333333333333" type="line"/>
      <point x="1102.0" y="99.0" type="line"/>
      <point x="988.880736774675" y="33.579264149560586"/>
      <point x="857.5771868978806" y="10.599999999999998"/>
    </contour>
  </outline>
</glyph>
<glyph name="H" format="2">
  <advance width="1515.8133333333333"/>
  <unicode hex="0048"/>
  <anchor x="1003.2666666666668" y="1430.0" name="UCtop"/>
  <anchor x="587.6666666666667" y="0.0" name="bottom"/>
  <outline>
    <contour>
      <point x="345.7733333333333" y="722.6533333333333" type="line"/>
      <point x="1294.1866666666667" y="722.6533333333333" type="line"/>
      <point x="1306.92" y="761.1066666666667" type="line"/>
      <point x="358.1333333333333" y="761.1066666666667" type="line"/>
    </contour>
    <contour>
      <point x="508.1333333333333" y="1385.04" type="line"/>
      <point x="99.73333333333333" y="44.96" type="line"/>
      <point x="-78.89333333333335" y="14.986666666666666" type="line"/>
      <point x="-83.01333333333334" y="0.0" type="line"/>
      <point x="383.4266666666667" y="0.0" type="line"/>
      <point x="387.8" y="14.986666666666666" type="line"/>
      <point x="220.16" y="44.96" type="line"/>
      <point x="629.1866666666666" y="1385.04" type="line"/>
      <point x="807.1866666666666" y="1415.0133333333333" type="line"/>
      <point x="811.9333333333333" y="1430.0" type="line"/>
      <point x="344.8666666666666" y="1430.0" type="line"/>
      <point x="340.12" y="1415.0133333333333" type="line"/>
    </contour>
    <contour>
      <point x="1416.6533333333332" y="1385.04" type="line"/>
      <point x="1008.2533333333333" y="44.96" type="line"/>
      <point x="829.6266666666667" y="14.986666666666666" type="line"/>
      <point x="825.5066666666667" y="0.0" type="line"/>
      <point x="1291.9466666666667" y="0.0" type="line"/>
      <point x="1296.6933333333334" y="14.986666666666666" type="line"/>
      <point x="1129.0533333333333" y="44.96" type="line"/>
      <point x="1538.08" y="1385.04" type="line"/>
      <point x="1715.7066666666665" y="1415.0133333333333" type="line"/>
      <point x="1720.4533333333331" y="1430.0" type="line"/>
      <point x="1253.3866666666665" y="1430.0" type="line"/>
      <point x="1249.0133333333333" y="1415.0133333333333" type="line"/>
    </contour>
  </outline>
</glyph>
<glyph name="I" format="2">
  <advance width="606.9200000000001"/>
  <unicode hex="0049"/>
  <anchor x="572.0400000000001" y="1430.0" name="UCtop"/>
  <anchor x="231.58666666666667" y="0.0" name="right"/>
  <anchor x="140.38666666666666" y="0.0" name="bottom"/>
  <outline>
    <contour>
      <point x="508.1333333333333" y="1385.04" type="line"/>
      <point x="99.73333333333333" y="44.96" type="line"/>
      <point x="-78.89333333333335" y="14.986666666666666" type="line"/>
      <point x="-83.01333333333334" y="0.0" type="line"/>
      <point x="383.4266666666667" y="0.0" type="line"/>
      <point x="387.8" y="14.986666666666666" type="line"/>
      <point x="220.16" y="44.96" type="line"/>
      <point x="629.1866666666666" y="1385.04" type="line"/>
      <point x="807.1866666666666" y="1415.0133333333333" type="line"/>
      <point x="811.9333333333333" y="1430.0" type="line"/>
      <point x="344.8666666666666" y="1430.0" type="line"/>
      <point x="340.12" y="1415.0133333333333" type="line"/>
    </contour>
  </outline>
</glyph>
<glyph name="J" format="2">
  <advance width="684.2666666666667"/>
  <unicode hex="004A"/>
  <anchor x="679.7466666666667" y="1430.0" name="UCtop"/>
  <anchor x="129.2133333333333" y="0.0" name="bottom"/>
  <outline>
    <contour>
      <point x="451.82666666666665" y="458.44" type="curve" smooth="yes"/>
      <point x="735.1466666666668" y="1385.04" type="line"/>
      <point x="913.1466666666666" y="1415.0133333333333" type="line"/>
      <point x="917.8933333333333" y="1430.0" type="line"/>
      <point x="450.8266666666667" y="1430.0" type="line"/>
      <point x="446.08" y="1415.0133333333333" type="line"/>
      <point x="614.0933333333334" y="1385.04" type="line"/>
      <point x="270.2133333333333" y="259.65333333333336" type="line" smooth="yes"/>
      <point x="226.2" y="113.73333333333333"/>
      <point x="162.62666666666667" y="53.90666666666666"/>
      <point x="69.56" y="53.90666666666666" type="curve" smooth="yes"/>
      <point x="7.613333333333328" y="53.90666666666666"/>
      <point x="-35.120000000000005" y="105.70666666666666"/>
      <point x="-64.24000000000001" y="105.70666666666666" type="curve" smooth="yes"/>
      <point x="-95.33333333333334" y="105.70666666666666"/>
      <point x="-120.65333333333334" y="81.37333333333333"/>
      <point x="-120.65333333333334" y="45.68" type="curve" smooth="yes"/>
      <point x="-120.65333333333334" y="5.719999999999999"/>
      <point x="-90.56" y="-18.119999999999997"/>
      <point x="-23.360000000000003" y="-18.119999999999997" type="curve" smooth="yes"/>
      <point x="149.41333333333333" y="-18.119999999999997"/>
      <point x="356.73333333333335" y="148.04"/>
    </contour>
  </outline>
</glyph>
<glyph name="K" format="2">
  <advance width="1355.0266666666666"/>
  <unicode hex="004B"/>
  <anchor x="950.6133333333333" y="1430.0" name="UCtop"/>
  <anchor x="562.6133333333333" y="0.0" name="bottom"/>
  <outline>
    <contour>
      <point x="1072.4533333333334" y="44.21333333333333" type="line"/>
      <point x="607.48" y="804.0" type="line"/>
      <point x="552.9066666666668" y="742.56" type="line"/>
      <point x="1382.5466666666666" y="1383.5333333333333" type="line"/>
      <point x="1562.68" y="1413.76" type="line"/>
      <point x="1567.6799999999998" y="1430.0" type="line"/>
      <point x="1162.8666666666666" y="1430.0" type="line"/>
      <point x="1158.12" y="1413.76" type="line"/>
      <point x="1324.8666666666668" y="1382.7866666666666" type="line"/>
      <point x="533.24" y="770.5866666666667" type="line"/>
      <point x="406.22666666666663" y="770.5866666666667" type="line"/>
      <point x="393.49333333333334" y="732.1333333333333" type="line"/>
      <point x="518.0" y="732.1333333333333" type="line"/>
      <point x="930.4533333333334" y="44.58666666666667" type="line"/>
      <point x="757.9333333333333" y="14.986666666666666" type="line"/>
      <point x="753.1866666666666" y="0.0" type="line"/>
      <point x="1230.5066666666667" y="0.0" type="line"/>
      <point x="1235.2533333333333" y="14.986666666666666" type="line"/>
    </contour>
    <contour>
      <point x="508.1333333333333" y="1385.04" type="line"/>
      <point x="99.73333333333333" y="44.96" type="line"/>
      <point x="-78.89333333333335" y="14.986666666666666" type="line"/>
      <point x="-83.01333333333334" y="0.0" type="line"/>
      <point x="383.4266666666667" y="0.0" type="line"/>
      <point x="387.8" y="14.986666666666666" type="line"/>
      <point x="220.16" y="44.96" type="line"/>
      <point x="629.1866666666666" y="1385.04" type="line"/>
      <point x="807.1866666666666" y="1415.0133333333333" type="line"/>
      <point x="811.9333333333333" y="1430.0" type="line"/>
      <point x="344.8666666666666" y="1430.0" type="line"/>
      <point x="340.12" y="1415.0133333333333" type="line"/>
    </contour>
  </outline>
</glyph>
<glyph name="L" format="2">
  <advance width="1141.2533333333333"/>
  <unicode hex="004C"/>
  <anchor x="572.5333333333333" y="1430.0" name="UCtop"/>
  <anchor x="824.5466666666666" y="1430.0" name="right"/>
  <anchor x="447.06666666666666" y="0.0" name="bottom"/>
  <anchor x="968.9866666666666" y="773.0" name="mid"/>
  <outline>
    <contour>
      <point x="629.1866666666666" y="1385.04" type="line"/>
      <point x="807.1866666666666" y="1415.0133333333333" type="line"/>
      <point x="811.9333333333333" y="1430.0" type="line"/>
      <point x="344.8666666666666" y="1430.0" type="line"/>
      <point x="340.12" y="1415.0133333333333" type="line"/>
      <point x="508.1333333333333" y="1385.04" type="line"/>
      <point x="99.73333333333333" y="44.96" type="line"/>
      <point x="-78.89333333333335" y="14.986666666666666" type="line"/>
      <point x="-83.01333333333334" y="0.0" type="line"/>
      <point x="206.54666666666665" y="0.0" type="line"/>
    </contour>
    <contour>
      <point x="751.7866666666666" y="24.84" type="line"/>
      <point x="805.8933333333333" y="38.45333333333333" type="line"/>
      <point x="147.06666666666666" y="38.45333333333333" type="line"/>
      <point x="134.70666666666668" y="0.0" type="line"/>
      <point x="762.7733333333333" y="0.0" type="line"/>
      <point x="839.0133333333334" y="-50.86666666666667" type="line"/>
      <point x="845.3866666666667" y="-50.86666666666667" type="line"/>
      <point x="1078.6133333333335" y="375.0933333333333" type="line"/>
      <point x="1064.2533333333333" y="385.08" type="line"/>
    </contour>
  </outline>
</glyph>
<glyph name="N" format="2">
  <advance width="1480.0933333333335"/>
  <unicode hex="004E"/>
  <anchor x="1027.6933333333332" y="1430.0" name="UCtop"/>
  <anchor x="639.6933333333333" y="0.0" name="bottom"/>
  <outline>
    <contour>
      <point x="1121.8933333333332" y="146.97333333333336" type="line"/>
      <point x="630.6666666666666" y="1430.0" type="line"/>
      <point x="345.26666666666665" y="1430.0" type="line"/>
      <point x="340.52" y="1415.0133333333333" type="line"/>
      <point x="507.50666666666666" y="1376.8133333333333" type="line"/>
      <point x="101.22666666666666" y="44.21333333333333" type="line"/>
      <point x="-76.77333333333334" y="14.986666666666666" type="line"/>
      <point x="-81.52000000000001" y="0.0" type="line"/>
      <point x="313.92" y="0.0" type="line"/>
      <point x="318.6666666666667" y="14.986666666666666" type="line"/>
      <point x="143.56" y="44.21333333333333" type="line"/>
      <point x="553.4666666666667" y="1387.5733333333335" type="line"/>
      <point x="530.9733333333334" y="1363.9866666666667" type="line"/>
      <point x="1064.0" y="-20.0" type="line"/>
      <point x="1088.4666666666667" y="-20.0" type="line"/>
      <point x="1517.2266666666667" y="1385.7866666666666" type="line"/>
      <point x="1695.2266666666667" y="1415.0133333333333" type="line"/>
      <point x="1699.9733333333334" y="1430.0" type="line"/>
      <point x="1304.5333333333333" y="1430.0" type="line"/>
      <point x="1299.7866666666666" y="1415.0133333333333" type="line"/>
      <point x="1474.8933333333334" y="1385.7866666666666" type="line"/>
      <point x="1085.52" y="110.0" type="line"/>
    </contour>
  </outline>
</glyph>
<glyph name="O" format="2">
  <advance width="1517.5600000000002"/>
  <unicode hex="004F"/>
  <anchor x="1039.0933333333332" y="1430.0" name="UCtop"/>
  <anchor x="589.8933333333333" y="0.0" name="bottom"/>
  <anchor x="698.56" y="0.0" name="right"/>
  <anchor x="1374.3866666666668" y="1430.0" name="horn"/>
  <outline>
    <contour>
      <point x="255.08" y="475.44" type="curve" smooth="yes"/>
      <point x="255.08" y="884.8399999999999"/>
      <point x="545.2933333333334" y="1415.5333333333333"/>
      <point x="995.8666666666667" y="1415.5333333333333" type="curve" smooth="yes"/>
      <point x="1246.4533333333334" y="1415.5333333333333"/>
      <point x="1386.1066666666666" y="1257.7466666666667"/>
      <point x="1386.1066666666666" y="954.56" type="curve" smooth="yes"/>
      <point x="1386.1066666666666" y="545.1600000000001"/>
      <point x="1095.8933333333334" y="14.466666666666665"/>
      <point x="645.3199999999999" y="14.466666666666665" type="curve" smooth="yes"/>
      <point x="394.73333333333335" y="14.466666666666665"/>
      <point x="255.08" y="172.25333333333333"/>
    </contour>
    <contour>
      <point x="1502.9333333333332" y="912.0133333333334" type="curve" smooth="yes"/>
      <point x="1502.9333333333332" y="1240.24"/>
      <point x="1328.7733333333335" y="1450.0"/>
      <point x="988.1333333333333" y="1450.0" type="curve" smooth="yes"/>
      <point x="499.9866666666667" y="1450.0"/>
      <point x="138.25333333333333" y="968.8266666666667"/>
      <point x="138.25333333333333" y="517.9866666666667" type="curve" smooth="yes"/>
      <point x="138.25333333333333" y="189.76"/>
      <point x="312.41333333333336" y="-20.0"/>
      <point x="653.0533333333333" y="-20.0" type="curve" smooth="yes"/>
      <point x="1141.1999999999998" y="-20.0"/>
      <point x="1502.9333333333332" y="461.17333333333335"/>
    </contour>
  </outline>
</glyph>
<glyph name="R" format="2">
  <advance width="1272.3999999999999"/>
  <unicode hex="0052"/>
  <anchor x="832.84" y="1430.0" name="UCtop"/>
  <anchor x="627.5333333333333" y="0.0" name="bottom"/>
  <outline>
    <contour>
      <point x="648.0933333333334" y="757.9733333333334" type="curve" smooth="yes"/>
      <point x="355.71999999999997" y="757.9733333333334" type="line"/>
      <point x="342.2266666666667" y="721.0133333333333" type="line"/>
      <point x="646.8000000000001" y="721.0133333333333" type="line" smooth="yes"/>
      <point x="729.08" y="721.0133333333333"/>
      <point x="751.96" y="703.1333333333333"/>
      <point x="802.5733333333334" y="541.4" type="curve" smooth="yes"/>
      <point x="912.4266666666667" y="188.05333333333334" type="line" smooth="yes"/>
      <point x="970.44" y="1.6133333333333333"/>
      <point x="998.6533333333333" y="-16.36"/>
      <point x="1198.5466666666669" y="0.0" type="curve"/>
      <point x="1205.7866666666666" y="21.84" type="line"/>
      <point x="1095.9866666666667" y="20.84"/>
      <point x="1078.7199999999998" y="40.86666666666667"/>
      <point x="1032.2266666666665" y="187.13333333333333" type="curve" smooth="yes"/>
      <point x="917.3733333333333" y="546.1466666666666" type="line" smooth="yes"/>
      <point x="873.1333333333333" y="683.52"/>
      <point x="831.5733333333334" y="739.0"/>
      <point x="682.68" y="739.3733333333333" type="curve"/>
      <point x="682.68" y="736.7466666666667" type="line"/>
      <point x="1009.3866666666667" y="752.64"/>
      <point x="1190.9866666666667" y="928.2933333333333"/>
      <point x="1190.9866666666667" y="1149.7466666666667" type="curve" smooth="yes"/>
      <point x="1190.9866666666667" y="1308.24"/>
      <point x="1085.5333333333333" y="1430.0"/>
      <point x="793.9333333333333" y="1430.0" type="curve" smooth="yes"/>
      <point x="553.7066666666666" y="1430.0" type="line"/>
      <point x="544.6" y="1393.04" type="line"/>
      <point x="759.24" y="1393.04" type="line" smooth="yes"/>
      <point x="986.0266666666666" y="1393.04"/>
      <point x="1073.4133333333334" y="1300.6133333333335"/>
      <point x="1073.4133333333334" y="1152.5066666666667" type="curve" smooth="yes"/>
      <point x="1073.4133333333334" y="926.3733333333333"/>
      <point x="911.5333333333333" y="757.9733333333334"/>
    </contour>
    <contour>
      <point x="220.16" y="44.96" type="line"/>
      <point x="642.8" y="1430.0" type="line"/>
      <point x="344.8666666666666" y="1430.0" type="line"/>
      <point x="340.12" y="1415.0133333333333" type="line"/>
      <point x="508.1333333333333" y="1385.04" type="line"/>
      <point x="99.73333333333333" y="44.96" type="line"/>
      <point x="-78.89333333333335" y="14.986666666666666" type="line"/>
      <point x="-83.01333333333334" y="0.0" type="line"/>
      <point x="383.4266666666667" y="0.0" type="line"/>
      <point x="387.8" y="14.986666666666666" type="line"/>
    </contour>
  </outline>
</glyph>
<glyph name="Y" format="2">
  <advance width="1320.5066666666667"/>
  <unicode hex="0059"/>
  <anchor x="945.0933333333334" y="1430.0" name="UCtop"/>
  <anchor x="529.6266666666667" y="0.0" name="bottom"/>
  <outline>
    <contour>
      <point x="1354.36" y="1382.0533333333333" type="line"/>
      <point x="739.1600000000001" y="659.3066666666667" type="line"/>
      <point x="758.8933333333333" y="659.9333333333334" type="line"/>
      <point x="535.7333333333333" y="1384.6666666666667" type="line"/>
      <point x="715.4933333333333" y="1415.0133333333333" type="line"/>
      <point x="719.8666666666667" y="1430.0" type="line"/>
      <point x="252.14666666666665" y="1430.0" type="line"/>
      <point x="248.14666666666668" y="1415.0133333333333" type="line"/>
      <point x="408.05333333333334" y="1383.92" type="line"/>
      <point x="644.5866666666666" y="635.0666666666666" type="line"/>
      <point x="465.09333333333336" y="44.96" type="line"/>
      <point x="286.46666666666664" y="14.986666666666666" type="line"/>
      <point x="282.3466666666667" y="0.0" type="line"/>
      <point x="748.7866666666667" y="0.0" type="line"/>
      <point x="753.16" y="14.986666666666666" type="line"/>
      <point x="585.52" y="44.96" type="line"/>
      <point x="765.64" y="635.5733333333334" type="line"/>
      <point x="1404.32" y="1380.9333333333334" type="line"/>
      <point x="1580.3600000000001" y="1415.0133333333333" type="line"/>
      <point x="1584.1066666666666" y="1430.0" type="line"/>
      <point x="1192.1066666666668" y="1430.0" type="line"/>
      <point x="1188.36" y="1415.0133333333333" type="line"/>
    </contour>
  </outline>
</glyph>
<glyph name="Z" format="2">
  <advance width="1226.8133333333333"/>
  <unicode hex="005A"/>
  <anchor x="907.3733333333333" y="1430.0" name="UCtop"/>
  <anchor x="469.50666666666666" y="0.0" name="bottom"/>
  <outline>
    <contour>
      <point x="1380.1466666666668" y="1430.0" type="line"/>
      <point x="524.5333333333333" y="1430.0" type="line"/>
      <point x="450.6133333333333" y="1488.6133333333332" type="line"/>
      <point x="442.37333333333333" y="1488.6133333333332" type="line"/>
      <point x="232.5066666666667" y="1051.0266666666669" type="line"/>
      <point x="248.62666666666667" y="1041.7866666666666" type="line"/>
      <point x="524.9066666666666" y="1391.5466666666666" type="line"/>
      <point x="1305.8" y="1391.5466666666666" type="line"/>
      <point x="1228.8533333333335" y="1406.3733333333332" type="line"/>
      <point x="-40.85333333333333" y="14.133333333333333" type="line"/>
      <point x="-45.10666666666667" y="0.0" type="line"/>
      <point x="840.6666666666667" y="0.0" type="line"/>
      <point x="922.2266666666667" y="-45.10666666666667" type="line"/>
      <point x="933.2133333333333" y="-45.10666666666667" type="line"/>
      <point x="1130.0666666666666" y="367.44" type="line"/>
      <point x="1113.8266666666668" y="376.05333333333334" type="line"/>
      <point x="844.0400000000001" y="38.45333333333333" type="line"/>
      <point x="81.98666666666666" y="38.45333333333333" type="line"/>
      <point x="104.54666666666667" y="23.493333333333332" type="line"/>
      <point x="1375.8933333333334" y="1415.4933333333333" type="line"/>
    </contour>
  </outline>
</glyph>
<glyph name="backslash" format="2">
  <advance width="748.24"/>
  <unicode hex="005C"/>
  <outline>
    <contour>
      <point x="531.7333333333333" y="0.0" type="line"/>
      <point x="396.0933333333333" y="1430.0" type="line"/>
      <point x="337.50666666666666" y="1430.0" type="line"/>
      <point x="473.14666666666665" y="0.0" type="line"/>
    </contour>
  </outline>
</glyph>
<glyph name="bracketright" format="2">
  <advance width="538.6533333333333"/>
  <unicode hex="005D"/>
  <outline>
    <contour>
      <point x="631.8933333333333" y="1463.3733333333332" type="line"/>
      <point x="324.1333333333333" y="1463.3733333333332" type="line"/>
      <point x="317.0133333333334" y="1440.0133333333333" type="line"/>
      <point x="527.2666666666667" y="1418.52" type="line"/>
      <point x="40.266666666666666" y="-172.48000000000002" type="line"/>
      <point x="-182.73333333333335" y="-193.97333333333336" type="line"/>
      <point x="-189.85333333333332" y="-217.33333333333334" type="line"/>
      <point x="118.53333333333333" y="-217.33333333333334" type="line"/>
    </contour>
  </outline>
</glyph>
<glyph name="j" format="2">
  <advance width="487.50666666666666"/>
  <unicode hex="006A"/>
  <anchor x="547.1866666666666" y="1430.0" name="top"/>
  <anchor x="-146.70666666666665" y="-445.0" name="bottom"/>
  <outline>
    <contour>
      <point x="450.53333333333336" y="1383.6133333333335" type="curve" smooth="yes"/>
      <point x="450.53333333333336" y="1335.7866666666666"/>
      <point x="484.74666666666667" y="1290.96"/>
      <point x="542.0666666666667" y="1290.96" type="curve" smooth="yes"/>
      <point x="599.0133333333333" y="1290.96"/>
      <point x="632.1066666666666" y="1335.7866666666666"/>
      <point x="632.1066666666666" y="1383.6133333333335" type="curve" smooth="yes"/>
      <point x="632.1066666666666" y="1430.6933333333334"/>
      <point x="599.0133333333333" y="1472.9066666666668"/>
      <point x="542.0666666666667" y="1472.9066666666668" type="curve" smooth="yes"/>
      <point x="484.74666666666667" y="1472.9066666666668"/>
      <point x="450.53333333333336" y="1430.6933333333334"/>
    </contour>
    <contour>
      <point x="199.76" y="80.61333333333333" type="curve" smooth="yes"/>
      <point x="483.14666666666665" y="963.96" type="line" smooth="yes"/>
      <point x="500.5066666666667" y="1018.04"/>
      <point x="485.88" y="1044.0"/>
      <point x="430.5733333333334" y="1044.0" type="curve" smooth="yes"/>
      <point x="329.84000000000003" y="1044.0"/>
      <point x="210.48000000000002" y="957.16"/>
      <point x="52.89333333333334" y="720.4266666666666" type="curve"/>
      <point x="60.64" y="714.0533333333333" type="line"/>
      <point x="243.39999999999998" y="926.12"/>
      <point x="355.94666666666666" y="970.76"/>
      <point x="412.4533333333333" y="951.12" type="curve"/>
      <point x="387.8133333333334" y="993.0266666666666" type="line"/>
      <point x="69.80000000000001" y="-23.560000000000002" type="line" smooth="yes"/>
      <point x="-28.94666666666667" y="-339.06666666666666"/>
      <point x="-108.13333333333334" y="-429.90666666666664"/>
      <point x="-207.97333333333336" y="-429.90666666666664" type="curve" smooth="yes"/>
      <point x="-244.08" y="-429.90666666666664"/>
      <point x="-254.56" y="-412.16"/>
      <point x="-239.68" y="-353.81333333333333" type="curve" smooth="yes"/>
      <point x="-224.79999999999998" y="-295.4666666666667"/>
      <point x="-237.54666666666665" y="-273.7333333333333"/>
      <point x="-280.8933333333333" y="-273.7333333333333" type="curve" smooth="yes"/>
      <point x="-332.61333333333334" y="-273.7333333333333"/>
      <point x="-362.71999999999997" y="-309.6933333333333"/>
      <point x="-362.71999999999997" y="-357.66666666666663" type="curve" smooth="yes"/>
      <point x="-362.71999999999997" y="-417.1466666666667"/>
      <point x="-321.8666666666666" y="-465.0"/>
      <point x="-238.4" y="-465.0" type="curve" smooth="yes"/>
      <point x="-87.66666666666666" y="-465.0"/>
      <point x="70.37333333333333" y="-322.82666666666665"/>
    </contour>
  </outline>
</glyph>
<glyph name="n" format="2">
  <advance width="1083.2133333333334"/>
  <unicode hex="006E"/>
  <anchor x="719.4933333333333" y="1024.0" name="top"/>
  <anchor x="406.6933333333333" y="0.0" name="bottom"/>
  <outline>
    <contour>
      <point x="66.22666666666667" y="625.2933333333334" type="line"/>
      <point x="213.50666666666666" y="899.1333333333333"/>
      <point x="307.8933333333333" y="944.6"/>
      <point x="349.64" y="944.6" type="curve" smooth="yes"/>
      <point x="375.1466666666667" y="944.6"/>
      <point x="384.41333333333336" y="927.6133333333333"/>
      <point x="372.65333333333336" y="892.08" type="curve"/>
      <point x="74.50666666666666" y="0.0" type="line"/>
      <point x="179.2266666666667" y="0.0" type="line"/>
      <point x="353.34666666666664" y="521.4933333333333" type="line"/>
      <point x="426.18666666666667" y="686.12"/>
      <point x="600.2666666666668" y="953.1333333333333"/>
      <point x="800.36" y="953.1333333333333" type="curve" smooth="yes"/>
      <point x="861.2266666666667" y="953.1333333333333"/>
      <point x="905.8933333333333" y="929.76"/>
      <point x="905.8933333333333" y="871.4666666666667" type="curve" smooth="yes"/>
      <point x="905.8933333333333" y="843.08"/>
      <point x="893.8933333333333" y="802.4266666666666"/>
      <point x="849.3733333333333" y="694.5066666666667" type="curve" smooth="yes"/>
      <point x="596.1066666666667" y="80.09333333333332" type="line" smooth="yes"/>
      <point x="568.7466666666667" y="13.506666666666668"/>
      <point x="581.4399999999999" y="-20.0"/>
      <point x="648.64" y="-20.0" type="curve" smooth="yes"/>
      <point x="744.6266666666667" y="-20.0"/>
      <point x="856.4266666666666" y="53.18666666666667"/>
      <point x="1033.56" y="302.32" type="curve"/>
      <point x="1025.8133333333333" y="308.06666666666666" type="line"/>
      <point x="848.44" y="105.26666666666667"/>
      <point x="719.0266666666668" y="54.74666666666666"/>
      <point x="660.6533333333334" y="74.38666666666666" type="curve"/>
      <point x="685.16" y="36.61333333333333" type="line"/>
      <point x="960.3599999999999" y="707.16" type="line" smooth="yes"/>
      <point x="1009.7333333333333" y="827.6533333333333"/>
      <point x="1019.7333333333333" y="867.6533333333333"/>
      <point x="1019.7333333333333" y="911.4" type="curve" smooth="yes"/>
      <point x="1019.7333333333333" y="986.8933333333333"/>
      <point x="964.7066666666666" y="1044.0"/>
      <point x="851.8533333333332" y="1044.0" type="curve" smooth="yes"/>
      <point x="662.6933333333334" y="1044.0"/>
      <point x="512.9866666666667" y="868.0799999999999"/>
      <point x="349.44" y="546.6133333333333" type="curve"/>
      <point x="367.5733333333333" y="569.8000000000001" type="line"/>
      <point x="509.34666666666664" y="1017.24" type="line"/>
      <point x="480.37333333333333" y="1031.9866666666667"/>
      <point x="456.26666666666665" y="1039.6133333333332"/>
      <point x="415.41333333333336" y="1039.6133333333332" type="curve" smooth="yes"/>
      <point x="303.9866666666667" y="1039.6133333333332"/>
      <point x="196.36" y="958.1733333333333"/>
      <point x="56.48" y="629.6666666666666" type="curve"/>
    </contour>
  </outline>
</glyph>
<glyph name="q" format="2">
  <advance width="915.7066666666666"/>
  <unicode hex="0071"/>
  <anchor x="652.1199999999999" y="1024.0" name="top"/>
  <anchor x="420.08" y="-445.0" name="bottom"/>
  <outline>
    <contour>
      <point x="374.6666666666667" y="-406.17333333333335" type="line"/>
      <point x="203.66666666666669" y="-428.6533333333333" type="line"/>
      <point x="198.54666666666668" y="-445.0" type="line"/>
      <point x="613.6533333333333" y="-445.0" type="line"/>
      <point x="618.1466666666666" y="-428.6533333333333" type="line"/>
      <point x="478.76000000000005" y="-406.17333333333335" type="line"/>
      <point x="941.6133333333333" y="1024.0" type="line"/>
      <point x="839.5066666666667" y="1024.0" type="line"/>
      <point x="807.2533333333333" y="926.7466666666667" type="line"/>
      <point x="656.5200000000001" y="469.81333333333333" type="line" smooth="yes"/>
      <point x="393.03999999999996" y="114.66666666666666"/>
      <point x="297.48" y="65.88000000000001"/>
      <point x="211.70666666666665" y="65.88000000000001" type="curve" smooth="yes"/>
      <point x="147.56" y="65.88000000000001"/>
      <point x="113.45333333333332" y="107.78666666666666"/>
      <point x="113.45333333333332" y="189.02666666666664" type="curve" smooth="yes"/>
      <point x="113.45333333333332" y="441.92"/>
      <point x="404.52" y="999.44"/>
      <point x="658.4266666666666" y="999.44" type="curve" smooth="yes"/>
      <point x="722.5466666666666" y="999.44"/>
      <point x="777.56" y="973.2"/>
      <point x="819.9466666666667" y="883.1066666666667" type="curve"/>
      <point x="830.0799999999999" y="903.9466666666667" type="line"/>
      <point x="784.9599999999999" y="998.16"/>
      <point x="722.24" y="1042.5066666666667"/>
      <point x="640.12" y="1042.5066666666667" type="curve" smooth="yes"/>
      <point x="347.41333333333336" y="1042.5066666666667"/>
      <point x="-2.1333333333333337" y="486.3466666666667"/>
      <point x="-2.1333333333333337" y="148.94666666666666" type="curve" smooth="yes"/>
      <point x="-2.1333333333333337" y="45.0"/>
      <point x="57.32" y="-20.0"/>
      <point x="166.70666666666665" y="-20.0" type="curve" smooth="yes"/>
      <point x="263.58666666666664" y="-20.0"/>
      <point x="373.0266666666667" y="41.10666666666667"/>
      <point x="662.6133333333333" y="450.4" type="curve"/>
      <point x="652.8666666666666" y="450.4" type="line"/>
    </contour>
  </outline>
</glyph>
<glyph name="y" format="2">
  <advance width="961.3599999999999"/>
  <unicode hex="0079"/>
  <anchor x="580.5066666666667" y="1024.0" name="top"/>
  <anchor x="618.9333333333333" y="-160.42666666666668" name="bottom"/>
  <outline>
    <contour>
      <point x="73.14666666666668" y="605.2666666666667" type="line"/>
      <point x="158.62666666666667" y="889.5066666666667"/>
      <point x="206.86666666666667" y="945.8933333333333"/>
      <point x="260.62666666666667" y="945.8933333333333" type="curve" smooth="yes"/>
      <point x="292.1333333333333" y="945.8933333333333"/>
      <point x="317.37333333333333" y="910.88"/>
      <point x="346.0" y="777.5733333333334" type="curve" smooth="yes"/>
      <point x="374.62666666666667" y="644.2666666666667"/>
      <point x="402.24" y="346.14666666666665"/>
      <point x="410.6" y="-209.2" type="curve"/>
      <point x="507.7066666666667" y="-94.12" type="line"/>
      <point x="507.5733333333333" y="382.16"/>
      <point x="472.9733333333333" y="729.5333333333333"/>
      <point x="435.48" y="866.2" type="curve" smooth="yes"/>
      <point x="397.9866666666667" y="1002.8666666666667"/>
      <point x="361.88" y="1044.0"/>
      <point x="311.26666666666665" y="1044.0" type="curve" smooth="yes"/>
      <point x="221.06666666666666" y="1044.0"/>
      <point x="133.61333333333334" y="947.0133333333333"/>
      <point x="63.53333333333333" y="605.2666666666667" type="curve"/>
    </contour>
    <contour>
      <point x="448.0133333333333" y="-137.18666666666667" type="line"/>
      <point x="297.64" y="-323.68"/>
      <point x="151.08" y="-414.6533333333333"/>
      <point x="23.56" y="-414.6533333333333" type="curve" smooth="yes"/>
      <point x="-18.44" y="-414.6533333333333"/>
      <point x="-34.32" y="-397.5333333333333"/>
      <point x="-20.333333333333336" y="-334.44" type="curve" smooth="yes"/>
      <point x="-6.34666666666667" y="-271.34666666666664"/>
      <point x="-20.093333333333334" y="-250.88"/>
      <point x="-67.41333333333333" y="-250.88" type="curve" smooth="yes"/>
      <point x="-121.37333333333332" y="-250.88"/>
      <point x="-154.09333333333333" y="-289.4533333333334"/>
      <point x="-154.09333333333333" y="-342.6533333333333" type="curve" smooth="yes"/>
      <point x="-154.09333333333333" y="-414.38666666666666"/>
      <point x="-111.48" y="-465.0"/>
      <point x="-13.52" y="-465.0" type="curve" smooth="yes"/>
      <point x="163.58666666666664" y="-465.0"/>
      <point x="337.25333333333333" y="-344.7733333333333"/>
      <point x="543.5866666666666" y="-62.839999999999996" type="curve" smooth="yes"/>
      <point x="751.1733333333333" y="220.97333333333336"/>
      <point x="946.5466666666666" y="742.8933333333333"/>
      <point x="946.5466666666666" y="990.88" type="curve" smooth="yes"/>
      <point x="946.5466666666666" y="1024.8933333333334"/>
      <point x="937.0666666666666" y="1032.7466666666667"/>
      <point x="900.5866666666667" y="1032.7466666666667" type="curve" smooth="yes"/>
      <point x="884.36" y="1032.7466666666667"/>
      <point x="869.0" y="1031.1200000000001"/>
      <point x="847.4" y="1024.6266666666668" type="curve"/>
      <point x="854.2933333333333" y="626.9466666666666"/>
      <point x="716.8133333333334" y="230.93333333333334"/>
      <point x="471.26666666666665" y="-107.56" type="curve"/>
    </contour>
  </outline>
</glyph>
<glyph name="z" format="2">
  <advance width="815.6133333333333"/>
  <unicode hex="007A"/>
  <anchor x="523.88" y="1024.0" name="top"/>
  <anchor x="278.68" y="0.0" name="bottom"/>
  <outline>
    <contour>
      <point x="-40.42666666666666" y="-1.3866666666666667" type="line"/>
      <point x="-19.066666666666663" y="-20.0" type="line"/>
      <point x="848.7466666666667" y="1025.64" type="line"/>
      <point x="826.76" y="1044.3733333333334" type="line"/>
    </contour>
    <contour>
      <point x="107.98666666666666" y="703.7199999999999" type="line"/>
      <point x="264.6933333333333" y="972.8"/>
      <point x="341.92" y="982.96"/>
      <point x="459.08" y="931.04" type="curve" smooth="yes"/>
      <point x="682.1733333333334" y="839.6933333333334" type="line"/>
      <point x="751.2" y="923.8266666666666" type="line"/>
      <point x="496.4666666666667" y="1024.64" type="line" smooth="yes"/>
      <point x="369.1774928213453" y="1075.413219619693"/>
      <point x="254.1866666666667" y="1042.52"/>
      <point x="97.49333333333334" y="706.72" type="curve"/>
    </contour>
    <contour>
      <point x="301.9066666666667" y="16.85333333333333" type="line" smooth="yes"/>
      <point x="446.3151423985505" y="-67.13777137061435"/>
      <point x="580.9200000000001" y="-12.306666666666665"/>
      <point x="762.9733333333334" y="359.0133333333333" type="curve"/>
      <point x="751.8533333333334" y="364.0133333333333" type="line"/>
      <point x="597.3599999999999" y="89.62666666666667"/>
      <point x="492.365067402144" y="20.681344495138426"/>
      <point x="330.9866666666667" y="122.18666666666665" type="curve" smooth="yes"/>
      <point x="168.38666666666666" y="220.78666666666666" type="line"/>
      <point x="90.61333333333334" y="139.79999999999998" type="line"/>
    </contour>
  </outline>
</glyph>
<glyph name="exclamdown" format="2">
  <advance width="440.7866666666667"/>
  <unicode hex="00A1"/>
  <outline>
    <contour>
      <point x="-124.81333333333335" y="-359.48" type="line" smooth="yes"/>
      <point x="-138.04" y="-402.28000000000003"/>
      <point x="-102.73333333333333" y="-423.49333333333334"/>
      <point x="-59.42666666666667" y="-423.49333333333334" type="curve" smooth="yes"/>
      <point x="-19.0" y="-423.49333333333334"/>
      <point x="19.053333333333324" y="-402.9066666666667"/>
      <point x="31.65333333333333" y="-361.9866666666667" type="curve" smooth="yes"/>
      <point x="40.28" y="-333.48" type="line" smooth="yes"/>
      <point x="51.51999999999999" y="-296.1333333333333"/>
      <point x="154.53333333333333" y="193.5066666666667"/>
      <point x="262.1066666666667" y="602.9866666666667" type="curve"/>
      <point x="236.12" y="602.9866666666667" type="line"/>
      <point x="98.53333333333333" y="209.18666666666667"/>
      <point x="-100.72" y="-279.4533333333334"/>
      <point x="-116.18666666666667" y="-330.97333333333336" type="curve" smooth="yes"/>
    </contour>
    <contour>
      <point x="336.88" y="830.1733333333333" type="curve" smooth="yes"/>
      <point x="406.94666666666666" y="830.1733333333333"/>
      <point x="455.38666666666666" y="882.7466666666667"/>
      <point x="455.38666666666666" y="949.0533333333334" type="curve" smooth="yes"/>
      <point x="455.38666666666666" y="1002.64"/>
      <point x="417.15999999999997" y="1039.8666666666666"/>
      <point x="360.82666666666665" y="1039.8666666666666" type="curve" smooth="yes"/>
      <point x="290.76" y="1039.8666666666666"/>
      <point x="242.32" y="987.2933333333333"/>
      <point x="242.32" y="921.36" type="curve" smooth="yes"/>
      <point x="242.32" y="867.4"/>
      <point x="280.5466666666667" y="830.1733333333333"/>
    </contour>
  </outline>
</glyph>
<glyph name="currency" format="2">
  <advance width="927.0"/>
  <unicode hex="00A4"/>
  <outline>
    <contour>
      <point x="219.76" y="824.5066666666667" type="line"/>
      <point x="307.14666666666665" y="692.4933333333333" type="line"/>
      <point x="350.8666666666667" y="725.3466666666667" type="line"/>
      <point x="260.48" y="855.9866666666667" type="line"/>
    </contour>
    <contour>
      <point x="852.0266666666666" y="844.76" type="line"/>
      <point x="683.64" y="716.0" type="line"/>
      <point x="711.7466666666667" y="675.6533333333333" type="line"/>
      <point x="881.76" y="801.7866666666666" type="line"/>
    </contour>
    <contour>
      <point x="704.9866666666667" y="199.49333333333334" type="line"/>
      <point x="617.6" y="331.50666666666666" type="line"/>
      <point x="573.88" y="298.6533333333333" type="line"/>
      <point x="664.2666666666667" y="168.01333333333332" type="line"/>
    </contour>
    <contour>
      <point x="42.986666666666665" y="222.21333333333334" type="line"/>
      <point x="72.72" y="179.24" type="line"/>
      <point x="241.10666666666665" y="308.0" type="line"/>
      <point x="213.0" y="348.3466666666667" type="line"/>
    </contour>
    <contour>
      <point x="519.36" y="802.9866666666667" type="curve" smooth="yes"/>
      <point x="313.08" y="802.9866666666667"/>
      <point x="161.01333333333335" y="649.5866666666667"/>
      <point x="161.01333333333335" y="451.50666666666666" type="curve" smooth="yes"/>
      <point x="161.01333333333335" y="313.62666666666667"/>
      <point x="256.6666666666667" y="221.01333333333332"/>
      <point x="405.76" y="221.01333333333332" type="curve" smooth="yes"/>
      <point x="612.04" y="221.01333333333332"/>
      <point x="764.1066666666667" y="374.41333333333336"/>
      <point x="764.1066666666667" y="572.4933333333333" type="curve" smooth="yes"/>
      <point x="764.1066666666667" y="710.3733333333333"/>
      <point x="668.4533333333333" y="802.9866666666667"/>
    </contour>
    <contour>
      <point x="413.4" y="271.73333333333335" type="curve" smooth="yes"/>
      <point x="292.1333333333333" y="271.73333333333335"/>
      <point x="216.97333333333333" y="345.1066666666666"/>
      <point x="216.97333333333333" y="460.74666666666667" type="curve" smooth="yes"/>
      <point x="216.97333333333333" y="625.8533333333334"/>
      <point x="334.96000000000004" y="752.2666666666668"/>
      <point x="511.71999999999997" y="752.2666666666668" type="curve" smooth="yes"/>
      <point x="632.9866666666667" y="752.2666666666668"/>
      <point x="708.1466666666668" y="678.8933333333333"/>
      <point x="708.1466666666668" y="563.2533333333333" type="curve" smooth="yes"/>
      <point x="708.1466666666668" y="398.1466666666667"/>
      <point x="590.16" y="271.73333333333335"/>
    </contour>
  </outline>
</glyph>
<glyph name="section" format="2">
  <advance width="1001.6266666666667"/>
  <unicode hex="00A7"/>
  <outline>
    <contour>
      <point x="477.36" y="929.6133333333333" type="curve"/>
      <point x="460.1066666666667" y="944.6" type="line"/>
      <point x="233.88" y="879.8399999999999"/>
      <point x="130.68" y="765.5733333333334"/>
      <point x="130.68" y="606.3733333333333" type="curve" smooth="yes"/>
      <point x="130.68" y="287.38666666666666"/>
      <point x="605.8533333333332" y="365.4266666666667"/>
      <point x="605.8533333333332" y="81.64" type="curve" smooth="yes"/>
      <point x="605.8533333333332" y="-63.22666666666667"/>
      <point x="488.9066666666667" y="-188.66666666666666"/>
      <point x="288.34666666666664" y="-188.66666666666666" type="curve" smooth="yes"/>
      <point x="87.98666666666665" y="-188.66666666666666"/>
      <point x="64.8" y="-30.520000000000007"/>
      <point x="19.866666666666664" y="-30.520000000000007" type="curve" smooth="yes"/>
      <point x="-22.200000000000003" y="-30.520000000000007"/>
      <point x="-47.66666666666667" y="-58.733333333333334"/>
      <point x="-47.66666666666667" y="-94.06666666666666" type="curve" smooth="yes"/>
      <point x="-47.66666666666667" y="-150.65333333333334"/>
      <point x="40.14666666666666" y="-218.0"/>
      <point x="246.2" y="-218.0" type="curve" smooth="yes"/>
      <point x="519.2266666666666" y="-218.0"/>
      <point x="692.96" y="-58.13333333333333"/>
      <point x="692.96" y="140.4" type="curve" smooth="yes"/>
      <point x="692.96" y="468.1333333333333"/>
      <point x="214.30666666666667" y="380.8"/>
      <point x="214.30666666666667" y="661.6400000000001" type="curve" smooth="yes"/>
      <point x="214.30666666666667" y="785.7733333333333"/>
      <point x="309.16" y="888.7066666666667"/>
    </contour>
    <contour>
      <point x="862.8533333333332" y="598.5600000000001" type="curve" smooth="yes"/>
      <point x="862.8533333333332" y="473.23030303030305"/>
      <point x="755.3485949793877" y="372.40320894959416"/>
      <point x="564.08" y="344.37333333333333" type="curve"/>
      <point x="576.32" y="326.88" type="line"/>
      <point x="821.1173680030538" y="372.0910525718648"/>
      <point x="945.8533333333334" y="480.75047619047615"/>
      <point x="945.8533333333334" y="651.9466666666667" type="curve" smooth="yes"/>
      <point x="945.8533333333334" y="960.28"/>
      <point x="452.50666666666666" y="894.7733333333333"/>
      <point x="452.50666666666666" y="1176.68" type="curve" smooth="yes"/>
      <point x="452.50666666666666" y="1300.24"/>
      <point x="558.8" y="1420.6666666666665"/>
      <point x="754.9733333333332" y="1420.6666666666665" type="curve" smooth="yes"/>
      <point x="955.3333333333334" y="1420.6666666666665"/>
      <point x="978.52" y="1262.52"/>
      <point x="1023.4533333333334" y="1262.52" type="curve" smooth="yes"/>
      <point x="1063.64" y="1262.52"/>
      <point x="1090.9866666666667" y="1288.2266666666667"/>
      <point x="1090.9866666666667" y="1324.1866666666665" type="curve" smooth="yes"/>
      <point x="1090.9866666666667" y="1382.6533333333334"/>
      <point x="1003.1733333333334" y="1450.0"/>
      <point x="797.12" y="1450.0" type="curve" smooth="yes"/>
      <point x="523.4666666666667" y="1450.0"/>
      <point x="367.28" y="1291.3866666666665"/>
      <point x="367.28" y="1119.1733333333334" type="curve" smooth="yes"/>
      <point x="367.28" y="798.96"/>
      <point x="862.8533333333332" y="858.72"/>
    </contour>
  </outline>
</glyph>
<glyph name="ordfeminine" format="2">
  <advance width="856.2266666666667"/>
  <unicode hex="00AA"/>
  <outline>
    <contour>
      <point x="188.42666666666668" y="574.3866666666667" type="line"/>
      <point x="716.44" y="574.3866666666667" type="line"/>
      <point x="731.9333333333334" y="624.6133333333333" type="line"/>
      <point x="203.66666666666669" y="624.6133333333333" type="line"/>
    </contour>
    <contour>
      <point x="619.0133333333333" y="842.6266666666667" type="line" smooth="yes"/>
      <point x="605.2533333333333" y="803.7333333333333"/>
      <point x="616.6133333333333" y="790.3733333333333"/>
      <point x="656.2266666666667" y="790.3733333333333" type="curve" smooth="yes"/>
      <point x="725.0" y="790.3733333333333"/>
      <point x="803.0" y="836.3733333333333"/>
      <point x="909.6133333333333" y="978.9733333333334" type="curve"/>
      <point x="901.36" y="986.6" type="line"/>
      <point x="786.9466666666667" y="866.3066666666667"/>
      <point x="708.5600000000001" y="844.04"/>
      <point x="665.28" y="856.4133333333334" type="curve"/>
      <point x="694.1333333333334" y="825.0400000000001" type="line"/>
      <point x="913.08" y="1430.0" type="line"/>
      <point x="830.3066666666666" y="1430.0" type="line"/>
      <point x="808.9333333333334" y="1374.6266666666666" type="line"/>
      <point x="708.8133333333334" y="1096.5466666666666" type="line" smooth="yes"/>
      <point x="535.6266666666667" y="884.2533333333333"/>
      <point x="473.4" y="853.9333333333334"/>
      <point x="422.1333333333333" y="853.9333333333334" type="curve" smooth="yes"/>
      <point x="378.22666666666663" y="853.9333333333334"/>
      <point x="351.84000000000003" y="879.8266666666667"/>
      <point x="351.21333333333337" y="937.0933333333334" type="curve" smooth="yes"/>
      <point x="349.3333333333333" y="1085.84"/>
      <point x="548.92" y="1409.4133333333332"/>
      <point x="716.1066666666666" y="1409.4133333333332" type="curve" smooth="yes"/>
      <point x="754.5066666666667" y="1409.4133333333332"/>
      <point x="789.5333333333333" y="1395.9066666666665"/>
      <point x="817.4266666666667" y="1353.2533333333333" type="curve"/>
      <point x="825.9333333333334" y="1363.76" type="line"/>
      <point x="794.4266666666667" y="1418.2533333333333"/>
      <point x="753.3066666666667" y="1443.4933333333333"/>
      <point x="699.0400000000001" y="1443.4933333333333" type="curve" smooth="yes"/>
      <point x="490.0666666666667" y="1443.4933333333333"/>
      <point x="248.71999999999997" y="1116.2666666666667"/>
      <point x="250.59999999999997" y="908.6266666666667" type="curve" smooth="yes"/>
      <point x="251.22666666666663" y="841.6533333333333"/>
      <point x="291.7066666666667" y="790.3733333333333"/>
      <point x="377.81333333333333" y="790.3733333333333" type="curve" smooth="yes"/>
      <point x="443.96000000000004" y="790.3733333333333"/>
      <point x="522.1999999999999" y="827.36"/>
      <point x="715.6666666666666" y="1081.64" type="curve"/>
      <point x="703.4133333333334" y="1079.76" type="line"/>
    </contour>
  </outline>
</glyph>
<glyph name="guillemotleft" format="2">
  <advance width="831.2666666666667"/>
  <unicode hex="00AB"/>
  <outline>
    <contour>
      <point x="170.11999999999998" y="563.3199999999999" type="line"/>
      <point x="142.24" y="447.16" type="line"/>
      <point x="565.0533333333333" y="923.5866666666667" type="line"/>
      <point x="552.0533333333333" y="937.84" type="line"/>
      <point x="63.86666666666667" y="527.7466666666667" type="line"/>
      <point x="60.12" y="516.2533333333333" type="line"/>
      <point x="301.58666666666664" y="106.16" type="line"/>
      <point x="317.7066666666667" y="112.90666666666667" type="line"/>
    </contour>
    <contour>
      <point x="478.18666666666667" y="563.3199999999999" type="line"/>
      <point x="450.3066666666666" y="447.16" type="line"/>
      <point x="873.12" y="923.5866666666667" type="line"/>
      <point x="860.12" y="937.84" type="line"/>
      <point x="371.93333333333334" y="527.7466666666667" type="line"/>
      <point x="368.18666666666667" y="516.2533333333333" type="line"/>
      <point x="609.6533333333334" y="106.16" type="line"/>
      <point x="625.7733333333333" y="112.90666666666667" type="line"/>
    </contour>
  </outline>
</glyph>
<glyph name="questiondown" format="2">
  <advance width="939.5866666666667"/>
  <unicode hex="00BF"/>
  <outline>
    <contour>
      <point x="654.0133333333333" y="829.8" type="curve" smooth="yes"/>
      <point x="724.0799999999999" y="829.8"/>
      <point x="772.52" y="882.3733333333333"/>
      <point x="772.52" y="948.68" type="curve" smooth="yes"/>
      <point x="772.52" y="1002.2666666666667"/>
      <point x="734.2933333333333" y="1039.4933333333333"/>
      <point x="677.96" y="1039.4933333333333" type="curve" smooth="yes"/>
      <point x="607.8933333333333" y="1039.4933333333333"/>
      <point x="559.4533333333333" y="986.92"/>
      <point x="559.4533333333333" y="920.9866666666666" type="curve" smooth="yes"/>
      <point x="559.4533333333333" y="867.0266666666666"/>
      <point x="597.68" y="829.8"/>
    </contour>
    <contour>
      <point x="405.29333333333335" y="-426.37333333333333" type="curve" smooth="yes"/>
      <point x="577.5466666666666" y="-426.37333333333333"/>
      <point x="632.32" y="-383.0266666666667"/>
      <point x="632.32" y="-328.5733333333333" type="curve" smooth="yes"/>
      <point x="632.32" y="-295.72"/>
      <point x="609.96" y="-270.2266666666667"/>
      <point x="583.48" y="-270.2266666666667" type="curve" smooth="yes"/>
      <point x="570.4933333333333" y="-270.2266666666667"/>
      <point x="476.68" y="-355.5333333333333"/>
      <point x="316.0933333333333" y="-355.5333333333333" type="curve" smooth="yes"/>
      <point x="136.66666666666666" y="-355.5333333333333"/>
      <point x="14.959999999999997" y="-240.36"/>
      <point x="14.959999999999997" y="-40.02666666666667" type="curve" smooth="yes"/>
      <point x="14.959999999999997" y="190.74666666666667"/>
      <point x="155.69333333333333" y="279.1066666666666"/>
      <point x="510.85333333333335" y="230.76000000000002" type="curve"/>
      <point x="589.5733333333334" y="602.6133333333333" type="line"/>
      <point x="565.72" y="602.6133333333333" type="line"/>
      <point x="444.28" y="253.46666666666667" type="line"/>
      <point x="502.71999999999997" y="335.37333333333333" type="line"/>
      <point x="112.56" y="387.2266666666667"/>
      <point x="-46.85333333333333" y="252.72000000000003"/>
      <point x="-46.85333333333333" y="0.40000000000000124" type="curve" smooth="yes"/>
      <point x="-46.85333333333333" y="-240.44"/>
      <point x="161.0" y="-426.37333333333333"/>
    </contour>
  </outline>
</glyph>
<glyph name="AE" format="2">
  <advance width="1989.0666666666666"/>
  <unicode hex="00C6"/>
  <anchor x="1325.96" y="1430.0" name="UCtop"/>
  <anchor x="888.96" y="0.0" name="bottom"/>
  <outline>
    <contour>
      <point x="48.97333333333333" y="47.33333333333333" type="line"/>
      <point x="1269.6933333333332" y="1402.5333333333333" type="line"/>
      <point x="1258.6933333333332" y="1409.5333333333333" type="line"/>
      <point x="842.92" y="44.96" type="line"/>
      <point x="664.2933333333333" y="14.986666666666666" type="line"/>
      <point x="628.8399999999999" y="0.0" type="line"/>
      <point x="949.7333333333333" y="0.0" type="line"/>
      <point x="1385.9866666666667" y="1430.0" type="line"/>
      <point x="1062.52" y="1430.0" type="line"/>
      <point x="1057.7733333333333" y="1415.0133333333333" type="line"/>
      <point x="1210.9866666666667" y="1388.7866666666666" type="line"/>
      <point x="-2.3599999999999994" y="48.45333333333333" type="line"/>
      <point x="-179.0" y="14.986666666666666" type="line"/>
      <point x="-183.12" y="0.0" type="line"/>
      <point x="209.0" y="0.0" type="line"/>
      <point x="213.12" y="14.986666666666666" type="line"/>
    </contour>
    <contour>
      <point x="1670.5866666666666" y="-50.86666666666667" type="line"/>
      <point x="1676.96" y="-50.86666666666667" type="line"/>
      <point x="1905.7066666666667" y="368.37333333333333" type="line"/>
      <point x="1891.3466666666666" y="378.36" type="line"/>
      <point x="1583.3600000000001" y="24.84" type="line"/>
      <point x="1682.2666666666667" y="38.45333333333333" type="line"/>
      <point x="863.5733333333334" y="38.45333333333333" type="line"/>
      <point x="851.2133333333334" y="0.0" type="line"/>
      <point x="1594.3466666666668" y="0.0" type="line"/>
    </contour>
    <contour>
      <point x="504.64000000000004" y="578.3066666666666" type="line"/>
      <point x="1050.4266666666667" y="578.3066666666666" type="line"/>
      <point x="1062.7866666666666" y="616.76" type="line"/>
      <point x="517.3733333333333" y="616.76" type="line"/>
    </contour>
    <contour>
      <point x="1572.5066666666667" y="460.0133333333333" type="line"/>
      <point x="1585.9866666666667" y="460.0133333333333" type="line"/>
      <point x="1641.1066666666668" y="747.2533333333333" type="line"/>
      <point x="1762.48" y="1035.8666666666666" type="line"/>
      <point x="1748.3733333333334" y="1035.8666666666666" type="line"/>
      <point x="1581.04" y="776.48" type="line"/>
      <point x="1118.92" y="758.5066666666667" type="line"/>
      <point x="1111.2933333333333" y="737.6266666666667" type="line"/>
      <point x="1569.1733333333334" y="722.4" type="line"/>
    </contour>
    <contour>
      <point x="2015.44" y="1057.9466666666667" type="line"/>
      <point x="2033.1733333333334" y="1057.9466666666665" type="line"/>
      <point x="2088.3733333333334" y="1477.1066666666668" type="line"/>
      <point x="2083.2533333333336" y="1477.1066666666668" type="line"/>
      <point x="1981.3733333333332" y="1430.0" type="line"/>
      <point x="1319.5466666666669" y="1430.0" type="line"/>
      <point x="1307.1866666666667" y="1391.5466666666666" type="line"/>
      <point x="2045.8666666666666" y="1391.5466666666666" type="line"/>
      <point x="1971.0" y="1407.1599999999999" type="line"/>
    </contour>
  </outline>
</glyph>
<glyph name="Ccedilla" format="2">
  <advance width="1379.6133333333332"/>
  <unicode hex="00C7"/>
  <outline>
    <contour>
      <point x="1092.9066666666668" y="115.79999999999998" type="line"/>
      <point x="981.5733333333334" y="42.85333333333333"/>
      <point x="850.9599999999999" y="10.599999999999998"/>
      <point x="735.7066666666667" y="10.599999999999998" type="curve" smooth="yes"/>
      <point x="463.2" y="10.599999999999998"/>
      <point x="268.6" y="193.30666666666667"/>
      <point x="268.6" y="536.3333333333333" type="curve" smooth="yes"/>
      <point x="268.6" y="1071.9066666666668"/>
      <point x="609.9466666666666" y="1412.7733333333333"/>
      <point x="1034.5333333333333" y="1412.7733333333333" type="curve" smooth="yes"/>
      <point x="1174.3466666666666" y="1412.7733333333333"/>
      <point x="1284.9066666666668" y="1381.64"/>
      <point x="1381.2" y="1289.8933333333334" type="curve"/>
      <point x="1321.7866666666669" y="1362.0" type="line"/>
      <point x="1384.0933333333332" y="1010.92" type="line"/>
      <point x="1404.08" y="1010.92" type="line"/>
      <point x="1441.1866666666667" y="1480.8666666666668" type="line"/>
      <point x="1433.8266666666668" y="1480.8666666666668" type="line"/>
      <point x="1329.7866666666669" y="1387.3466666666666" type="line"/>
      <point x="1411.506666666667" y="1395.08" type="line"/>
      <point x="1313.76" y="1431.1066666666666"/>
      <point x="1210.48" y="1450.0"/>
      <point x="1076.28" y="1450.0" type="curve" smooth="yes"/>
      <point x="576.2266666666667" y="1450.0"/>
      <point x="149.39999999999998" y="1097.04"/>
      <point x="149.39999999999998" y="546.3066666666666" type="curve" smooth="yes"/>
      <point x="149.39999999999998" y="203.8"/>
      <point x="367.14666666666665" y="-20.0"/>
      <point x="732.0933333333332" y="-20.0" type="curve" smooth="yes"/>
      <point x="855.56" y="-20.0"/>
      <point x="1001.72" y="-0.9866666666666664"/>
      <point x="1127.6533333333334" y="41.52" type="curve"/>
      <point x="1287.3733333333332" y="351.59999999999997" type="line"/>
      <point x="1267.76" y="351.59999999999997" type="line"/>
      <point x="1021.84" y="54.45333333333333" type="line"/>
    </contour>
    <contour>
      <point x="534.6933333333334" y="-431.0133333333333" type="curve" smooth="yes"/>
      <point x="461.32" y="-431.0133333333333"/>
      <point x="440.7066666666667" y="-363.6666666666667"/>
      <point x="425.70666666666665" y="-363.6666666666667" type="curve" smooth="yes"/>
      <point x="399.09333333333336" y="-363.6666666666667"/>
      <point x="381.6" y="-383.16"/>
      <point x="381.6" y="-408.26666666666665" type="curve" smooth="yes"/>
      <point x="381.6" y="-439.1333333333333"/>
      <point x="406.72" y="-465.0"/>
      <point x="482.81333333333333" y="-465.0" type="curve"/>
      <point x="622.0533333333333" y="-465.0"/>
      <point x="723.7866666666666" y="-377.64"/>
      <point x="723.7866666666666" y="-275.0133333333333" type="curve" smooth="yes"/>
      <point x="723.7866666666666" y="-218.41333333333333"/>
      <point x="690.04" y="-167.04"/>
      <point x="571.56" y="-124.29333333333334" type="curve"/>
      <point x="563.72" y="-155.48000000000002" type="line"/>
      <point x="709.4266666666666" y="5.599999999999998" type="line"/>
      <point x="677.2" y="5.599999999999998" type="line"/>
      <point x="503.24" y="-182.6" type="line"/>
      <point x="503.24" y="-186.6" type="line"/>
      <point x="623.2133333333334" y="-224.22666666666666"/>
      <point x="660.4666666666667" y="-267.9733333333333"/>
      <point x="660.4666666666667" y="-316.34666666666664" type="curve" smooth="yes"/>
      <point x="660.4666666666667" y="-380.73333333333335"/>
      <point x="603.1999999999999" y="-431.0133333333333"/>
    </contour>
  </outline>
</glyph>
<glyph name="Oslash" format="2">
  <advance width="1542.4266666666667"/>
  <unicode hex="00D8"/>
  <anchor x="1051.2133333333331" y="1430.0" name="UCtop"/>
  <anchor x="602.0133333333334" y="0.0" name="bottom"/>
  <outline>
    <contour>
      <point x="1714.5466666666669" y="1430.0" type="line"/>
      <point x="1628.4666666666667" y="1430.0" type="line"/>
      <point x="1411.4666666666665" y="1246.4933333333333" type="line"/>
      <point x="1368.9066666666668" y="1211.6666666666667" type="line"/>
      <point x="261.90666666666664" y="261.56" type="line"/>
      <point x="219.98666666666668" y="227.74666666666667" type="line"/>
      <point x="-48.74666666666667" y="0.0" type="line"/>
      <point x="37.959999999999994" y="0.0" type="line"/>
      <point x="254.96" y="184.13333333333335" type="line"/>
      <point x="298.14666666666665" y="218.96" type="line"/>
      <point x="1405.1466666666668" y="1169.0666666666666" type="line"/>
      <point x="1446.4399999999998" y="1202.8799999999999" type="line"/>
    </contour>
    <contour>
      <point x="267.2" y="475.44" type="curve" smooth="yes"/>
      <point x="267.2" y="884.8399999999999"/>
      <point x="557.4133333333334" y="1415.5333333333333"/>
      <point x="1007.9866666666667" y="1415.5333333333333" type="curve" smooth="yes"/>
      <point x="1258.5733333333333" y="1415.5333333333333"/>
      <point x="1398.2266666666667" y="1257.7466666666667"/>
      <point x="1398.2266666666667" y="954.56" type="curve" smooth="yes"/>
      <point x="1398.2266666666667" y="545.1600000000001"/>
      <point x="1108.0133333333333" y="14.466666666666665"/>
      <point x="657.4399999999999" y="14.466666666666665" type="curve" smooth="yes"/>
      <point x="406.8533333333333" y="14.466666666666665"/>
      <point x="267.2" y="172.25333333333333"/>
    </contour>
    <contour>
      <point x="1515.0533333333335" y="912.0133333333334" type="curve" smooth="yes"/>
      <point x="1515.0533333333335" y="1240.24"/>
      <point x="1340.8933333333334" y="1450.0"/>
      <point x="1000.2533333333333" y="1450.0" type="curve" smooth="yes"/>
      <point x="512.1066666666667" y="1450.0"/>
      <point x="150.37333333333333" y="968.8266666666667"/>
      <point x="150.37333333333333" y="517.9866666666667" type="curve" smooth="yes"/>
      <point x="150.37333333333333" y="189.76"/>
      <point x="324.5333333333333" y="-20.0"/>
      <point x="665.1733333333333" y="-20.0" type="curve" smooth="yes"/>
      <point x="1153.3200000000002" y="-20.0"/>
      <point x="1515.0533333333335" y="461.17333333333335"/>
    </contour>
  </outline>
</glyph>
<glyph name="ae" format="2">
  <advance width="1383.9333333333334"/>
  <unicode hex="00E6"/>
  <anchor x="883.2666666666667" y="1024.0" name="top"/>
  <anchor x="551.4666666666667" y="0.0" name="bottom"/>
  <outline>
    <contour>
      <point x="872.3866666666667" y="797.04" type="line"/>
      <point x="948.7066666666666" y="1024.0" type="line"/>
      <point x="843.9866666666666" y="1024.0" type="line"/>
      <point x="810.24" y="924.88" type="line"/>
      <point x="656.5200000000001" y="469.81333333333333" type="line" smooth="yes"/>
      <point x="393.03999999999996" y="114.66666666666666"/>
      <point x="297.48" y="65.88000000000001"/>
      <point x="211.70666666666665" y="65.88000000000001" type="curve" smooth="yes"/>
      <point x="147.56" y="65.88000000000001"/>
      <point x="113.45333333333332" y="107.78666666666666"/>
      <point x="113.45333333333332" y="189.02666666666664" type="curve" smooth="yes"/>
      <point x="113.45333333333332" y="441.92"/>
      <point x="404.52" y="999.44"/>
      <point x="658.4266666666666" y="999.44" type="curve" smooth="yes"/>
      <point x="722.5466666666666" y="999.44"/>
      <point x="777.56" y="973.1999999999999"/>
      <point x="819.9466666666666" y="883.1066666666667" type="curve"/>
      <point x="830.0799999999999" y="903.9466666666667" type="line"/>
      <point x="784.96" y="998.1600000000001"/>
      <point x="722.24" y="1042.5066666666667"/>
      <point x="640.12" y="1042.5066666666667" type="curve" smooth="yes"/>
      <point x="347.41333333333336" y="1042.5066666666667"/>
      <point x="-2.1333333333333337" y="486.3466666666667"/>
      <point x="-2.1333333333333337" y="148.94666666666666" type="curve" smooth="yes"/>
      <point x="-2.1333333333333337" y="45.0"/>
      <point x="57.32" y="-20.0"/>
      <point x="166.70666666666665" y="-20.0" type="curve" smooth="yes"/>
      <point x="264.9297017892644" y="-20.0"/>
      <point x="374.28" y="42.36"/>
      <point x="669.5066666666667" y="459.8" type="curve"/>
      <point x="658.3866666666667" y="459.79999999999995" type="line"/>
      <point x="595.6666666666666" y="122.50666666666667"/>
      <point x="680.72" y="-20.0"/>
      <point x="886.8533333333332" y="-20.0" type="curve" smooth="yes"/>
      <point x="1025.3333333333333" y="-20.0"/>
      <point x="1151.68" y="59.85333333333333"/>
      <point x="1285.8133333333333" y="395.0" type="curve"/>
      <point x="1276.0666666666666" y="397.62666666666667" type="line"/>
      <point x="1134.5066666666667" y="120.6"/>
      <point x="1022.3866666666667" y="67.64"/>
      <point x="915.7733333333333" y="67.64" type="curve" smooth="yes"/>
      <point x="808.12" y="67.64"/>
      <point x="751.1066666666667" y="126.65333333333334"/>
      <point x="751.1066666666667" y="296.8533333333333" type="curve" smooth="yes"/>
      <point x="751.1066666666667" y="633.76"/>
      <point x="961.7466666666667" y="1011.52"/>
      <point x="1192.0133333333333" y="1011.52" type="curve" smooth="yes"/>
      <point x="1290.12" y="1011.52"/>
      <point x="1320.9866666666667" y="926.7866666666666"/>
      <point x="1282.1333333333332" y="836.8533333333334" type="curve" smooth="yes"/>
      <point x="1243.28" y="749.5066666666667"/>
      <point x="1106.5466666666666" y="658.5333333333334"/>
      <point x="748.5066666666667" y="536.5333333333333" type="curve"/>
      <point x="748.1466666666666" y="516.1866666666667" type="line"/>
      <point x="960.2133333333334" y="574.5600000000001"/>
      <point x="1242.2533333333333" y="681.72"/>
      <point x="1351.5866666666666" y="743.8800000000001" type="curve"/>
      <point x="1393.4666666666667" y="799.7466666666667"/>
      <point x="1404.08" y="856.7333333333333"/>
      <point x="1402.8266666666666" y="904.9599999999999" type="curve" smooth="yes"/>
      <point x="1400.9466666666667" y="982.7866666666666"/>
      <point x="1346.2133333333334" y="1044.0"/>
      <point x="1232.6133333333332" y="1044.0" type="curve" smooth="yes"/>
      <point x="1087.531526001705" y="1044.0"/>
      <point x="956.9199999999998" y="957.6666666666666"/>
      <point x="859.8666666666666" y="797.04" type="curve"/>
    </contour>
  </outline>
</glyph>
<glyph name="eth" format="2">
  <advance width="897.68"/>
  <unicode hex="00F0"/>
  <outline>
    <contour>
      <point x="763.0266666666666" y="834.5733333333334" type="line"/>
      <point x="762.4" y="933.4666666666667"/>
      <point x="715.5066666666667" y="1012.0"/>
      <point x="612.72" y="1012.0" type="curve" smooth="yes"/>
      <point x="312.12" y="1012.0"/>
      <point x="41.266666666666666" y="638.6666666666667"/>
      <point x="41.266666666666666" y="263.12" type="curve" smooth="yes"/>
      <point x="41.266666666666666" y="78.36"/>
      <point x="120.0" y="-20.0"/>
      <point x="271.21333333333337" y="-20.0" type="curve" smooth="yes"/>
      <point x="599.28" y="-20.0"/>
      <point x="864.1733333333333" y="405.3066666666667"/>
      <point x="864.1733333333333" y="859.6533333333333" type="curve" smooth="yes"/>
      <point x="864.1733333333333" y="1113.6266666666666"/>
      <point x="763.7066666666667" y="1372.5466666666666"/>
      <point x="379.74666666666667" y="1479.24" type="curve"/>
      <point x="368.50666666666666" y="1454.2533333333333" type="line"/>
      <point x="672.8" y="1354.88"/>
      <point x="780.52" y="1133.08"/>
      <point x="752.6666666666666" y="838.7066666666667" type="curve"/>
    </contour>
    <contour>
      <point x="272.33333333333337" y="6.48" type="curve" smooth="yes"/>
      <point x="186.16" y="6.48"/>
      <point x="146.88" y="69.50666666666666"/>
      <point x="146.88" y="213.09333333333333" type="curve" smooth="yes"/>
      <point x="146.88" y="570.96"/>
      <point x="383.02666666666664" y="985.52"/>
      <point x="611.6" y="985.52" type="curve" smooth="yes"/>
      <point x="697.7733333333333" y="985.52"/>
      <point x="737.0533333333333" y="922.4933333333333"/>
      <point x="737.0533333333333" y="778.9066666666666" type="curve" smooth="yes"/>
      <point x="737.0533333333333" y="421.04"/>
      <point x="500.90666666666664" y="6.48"/>
    </contour>
    <contour>
      <point x="429.62666666666667" y="1091.6533333333334" type="line"/>
      <point x="926.8133333333334" y="1440.76" type="line"/>
      <point x="899.4266666666666" y="1479.8933333333334" type="line"/>
      <point x="402.24" y="1131.16" type="line"/>
    </contour>
  </outline>
</glyph>
<glyph name="divide" format="2">
  <advance width="1150.0"/>
  <unicode hex="00F7"/>
  <outline>
    <contour>
      <point x="172.12" y="538.1066666666667" type="line"/>
      <point x="155.88" y="485.8933333333333" type="line"/>
      <point x="977.88" y="485.8933333333333" type="line"/>
      <point x="994.12" y="538.1066666666667" type="line"/>
    </contour>
    <contour>
      <point x="684.0" y="961.3466666666667" type="curve" smooth="yes"/>
      <point x="631.8933333333333" y="961.3466666666667"/>
      <point x="592.28" y="920.36"/>
      <point x="592.28" y="870.0" type="curve" smooth="yes"/>
      <point x="592.28" y="819.64"/>
      <point x="631.8933333333333" y="779.28"/>
      <point x="684.0" y="779.28" type="curve" smooth="yes"/>
      <point x="736.1066666666667" y="779.28"/>
      <point x="775.72" y="819.64"/>
      <point x="775.72" y="870.0" type="curve" smooth="yes"/>
      <point x="775.72" y="920.36"/>
      <point x="736.1066666666667" y="961.3466666666667"/>
    </contour>
    <contour>
      <point x="466.0" y="245.72" type="curve" smooth="yes"/>
      <point x="413.8933333333333" y="245.72"/>
      <point x="374.28000000000003" y="204.36"/>
      <point x="374.28000000000003" y="154.0" type="curve" smooth="yes"/>
      <point x="374.28000000000003" y="103.64"/>
      <point x="413.8933333333333" y="63.279999999999994"/>
      <point x="466.0" y="63.279999999999994" type="curve" smooth="yes"/>
      <point x="518.1066666666667" y="63.279999999999994"/>
      <point x="557.72" y="103.64"/>
      <point x="557.72" y="154.0" type="curve" smooth="yes"/>
      <point x="557.72" y="204.36"/>
      <point x="518.1066666666667" y="245.72"/>
    </contour>
  </outline>
</glyph>
<glyph name="oslash" format="2">
  <advance width="925.6666666666666"/>
  <unicode hex="00F8"/>
  <anchor x="606.0533333333334" y="1024.0" name="top"/>
  <anchor x="297.11999999999995" y="0.0" name="bottom"/>
  <outline>
    <contour>
      <point x="632.84" y="1044.0" type="curve" smooth="yes"/>
      <point x="332.24" y="1044.0"/>
      <point x="61.38666666666667" y="658.6666666666667"/>
      <point x="61.38666666666667" y="272.12" type="curve" smooth="yes"/>
      <point x="61.38666666666667" y="81.36"/>
      <point x="140.12" y="-20.0"/>
      <point x="291.3333333333333" y="-20.0" type="curve" smooth="yes"/>
      <point x="591.9333333333334" y="-20.0"/>
      <point x="862.7866666666666" y="365.33333333333337"/>
      <point x="862.7866666666666" y="751.88" type="curve" smooth="yes"/>
      <point x="862.7866666666666" y="942.64"/>
      <point x="784.0533333333334" y="1044.0"/>
    </contour>
    <contour>
      <point x="292.4533333333333" y="6.48" type="curve" smooth="yes"/>
      <point x="206.28" y="6.48"/>
      <point x="167.0" y="72.13333333333334"/>
      <point x="167.0" y="220.34666666666666" type="curve" smooth="yes"/>
      <point x="167.0" y="589.2133333333334"/>
      <point x="403.1466666666667" y="1017.5200000000001"/>
      <point x="631.72" y="1017.5200000000001" type="curve" smooth="yes"/>
      <point x="717.8933333333333" y="1017.5200000000001"/>
      <point x="757.1733333333333" y="951.8666666666667"/>
      <point x="757.1733333333333" y="803.6533333333333" type="curve" smooth="yes"/>
      <point x="757.1733333333333" y="434.7866666666667"/>
      <point x="521.0266666666666" y="6.48"/>
    </contour>
    <contour>
      <point x="914.4133333333333" y="1024.0" type="line"/>
      <point x="801.9333333333334" y="907.76" type="line"/>
      <point x="777.7333333333333" y="889.6533333333333" type="line"/>
      <point x="120.78666666666668" y="180.95999999999998" type="line"/>
      <point x="96.72" y="164.6" type="line"/>
      <point x="-62.120000000000005" y="0.0" type="line"/>
      <point x="16.226666666666667" y="0.0" type="line"/>
      <point x="129.33333333333334" y="116.24000000000001" type="line"/>
      <point x="152.90666666666667" y="133.72" type="line"/>
      <point x="809.2266666666667" y="842.4133333333334" type="line"/>
      <point x="835.8000000000001" y="860.6533333333333" type="line"/>
      <point x="992.76" y="1024.0" type="line"/>
    </contour>
  </outline>
</glyph>
<glyph name="Dcroat" format="2">
  <advance width="1460.1466666666668"/>
  <unicode hex="0110"/>
  <outline>
    <contour>
      <point x="139.86666666666667" y="718.76" type="line"/>
      <point x="770.4933333333333" y="718.76" type="line"/>
      <point x="787.6133333333333" y="775.24" type="line"/>
      <point x="156.98666666666665" y="775.24" type="line"/>
    </contour>
    <contour>
      <point x="451.29333333333335" y="38.45333333333333" type="curve" smooth="yes"/>
      <point x="132.22666666666666" y="38.45333333333333" type="line"/>
      <point x="132.52" y="0.0" type="line"/>
      <point x="470.5333333333333" y="0.0" type="line" smooth="yes"/>
      <point x="1085.76" y="0.0"/>
      <point x="1440.0133333333333" y="412.6"/>
      <point x="1440.0133333333333" y="905.0266666666666" type="curve" smooth="yes"/>
      <point x="1440.0133333333333" y="1236.2266666666667"/>
      <point x="1193.5733333333333" y="1430.0"/>
      <point x="802.9066666666666" y="1430.0" type="curve" smooth="yes"/>
      <point x="569.8933333333333" y="1430.0" type="line"/>
      <point x="546.3733333333333" y="1391.5466666666666" type="line"/>
      <point x="779.76" y="1391.5466666666666" type="line" smooth="yes"/>
      <point x="1124.1200000000001" y="1391.5466666666666"/>
      <point x="1315.5866666666666" y="1220.7733333333333"/>
      <point x="1315.5866666666666" y="917.8133333333333" type="curve" smooth="yes"/>
      <point x="1315.5866666666666" y="423.08"/>
      <point x="1002.4133333333333" y="38.45333333333333"/>
    </contour>
    <contour>
      <point x="510.76" y="1385.04" type="line"/>
      <point x="102.36" y="44.96" type="line"/>
      <point x="-76.26666666666667" y="14.986666666666666" type="line"/>
      <point x="-80.38666666666667" y="0.0" type="line"/>
      <point x="209.17333333333332" y="0.0" type="line"/>
      <point x="645.4266666666666" y="1430.0" type="line"/>
      <point x="347.49333333333334" y="1430.0" type="line"/>
      <point x="342.74666666666667" y="1415.0133333333333" type="line"/>
    </contour>
  </outline>
</glyph>
<glyph name="Eogonek" format="2">
  <advance width="1245.88"/>
  <unicode hex="0118"/>
  <outline>
    <contour>
      <point x="508.1333333333333" y="1385.04" type="line"/>
      <point x="99.73333333333333" y="44.96" type="line"/>
      <point x="-78.89333333333335" y="14.986666666666666" type="line"/>
      <point x="-83.01333333333334" y="0.0" type="line"/>
      <point x="206.54666666666665" y="0.0" type="line"/>
      <point x="642.8" y="1430.0" type="line"/>
      <point x="344.8666666666666" y="1430.0" type="line"/>
      <point x="340.12" y="1415.0133333333333" type="line"/>
    </contour>
    <contour>
      <point x="829.32" y="460.0133333333333" type="line"/>
      <point x="842.8" y="460.0133333333333" type="line"/>
      <point x="897.92" y="747.2533333333333" type="line"/>
      <point x="1019.2933333333333" y="1035.8666666666666" type="line"/>
      <point x="1005.1866666666667" y="1035.8666666666666" type="line"/>
      <point x="837.8533333333332" y="776.48" type="line"/>
      <point x="375.7333333333333" y="758.5066666666667" type="line"/>
      <point x="368.1066666666667" y="737.6266666666667" type="line"/>
      <point x="825.9866666666666" y="722.4" type="line"/>
    </contour>
    <contour>
      <point x="1289.9866666666667" y="1057.9466666666665" type="line"/>
      <point x="1345.1866666666667" y="1477.1066666666668" type="line"/>
      <point x="1340.0666666666666" y="1477.1066666666668" type="line"/>
      <point x="1238.1866666666667" y="1430.0" type="line"/>
      <point x="545.0266666666666" y="1430.0" type="line"/>
      <point x="532.6666666666666" y="1391.5466666666666" type="line"/>
      <point x="1302.68" y="1391.5466666666666" type="line"/>
      <point x="1227.8133333333333" y="1407.1599999999999" type="line"/>
      <point x="1272.2533333333333" y="1057.9466666666667" type="line"/>
    </contour>
    <contour>
      <point x="927.4" y="-50.86666666666667" type="line"/>
      <point x="933.7733333333333" y="-50.86666666666667" type="line"/>
      <point x="1162.52" y="368.37333333333333" type="line"/>
      <point x="1148.16" y="378.36" type="line"/>
      <point x="840.1733333333334" y="24.84" type="line"/>
      <point x="907.3466666666667" y="38.45333333333333" type="line"/>
      <point x="120.38666666666667" y="38.45333333333333" type="line"/>
      <point x="108.02666666666667" y="0.0" type="line"/>
      <point x="851.1600000000001" y="0.0" type="line"/>
    </contour>
    <contour>
      <point x="656.88" y="-326.84000000000003" type="curve" smooth="yes"/>
      <point x="656.88" y="-277.3466666666667"/>
      <point x="679.8933333333333" y="-212.84"/>
      <point x="795.72" y="-73.78666666666666" type="curve" smooth="yes"/>
      <point x="881.0666666666666" y="31.52" type="line"/>
      <point x="860.6933333333334" y="31.52" type="line"/>
      <point x="728.6" y="-113.92000000000002" type="line" smooth="yes"/>
      <point x="598.3733333333333" y="-256.49333333333334"/>
      <point x="575.3466666666667" y="-308.25333333333333"/>
      <point x="575.3466666666667" y="-363.25333333333333" type="curve" smooth="yes"/>
      <point x="575.3466666666667" y="-422.74666666666667"/>
      <point x="612.8399999999999" y="-465.0"/>
      <point x="692.32" y="-465.0" type="curve" smooth="yes"/>
      <point x="755.3066666666666" y="-465.0"/>
      <point x="800.16" y="-432.1333333333333"/>
      <point x="863.76" y="-347.4266666666667" type="curve"/>
      <point x="855.76" y="-339.05333333333334" type="line"/>
      <point x="814.2533333333333" y="-380.06666666666666"/>
      <point x="776.4933333333333" y="-397.5733333333333"/>
      <point x="737.7466666666667" y="-397.5733333333333" type="curve" smooth="yes"/>
      <point x="680.4933333333333" y="-397.5733333333333"/>
      <point x="656.88" y="-372.6933333333333"/>
    </contour>
  </outline>
</glyph>
<glyph name="Hbar" format="2">
  <advance width="1519.0666666666666"/>
  <unicode hex="0126"/>
  <outline>
    <contour>
      <point x="348.02666666666664" y="722.6533333333333" type="line"/>
      <point x="1296.44" y="722.6533333333333" type="line"/>
      <point x="1309.1733333333334" y="761.1066666666667" type="line"/>
      <point x="360.3866666666667" y="761.1066666666667" type="line"/>
    </contour>
    <contour>
      <point x="239.73333333333335" y="1059.1333333333332" type="line"/>
      <point x="1615.32" y="1059.1333333333332" type="line"/>
      <point x="1632.8133333333333" y="1115.6133333333332" type="line"/>
      <point x="256.85333333333335" y="1115.6133333333332" type="line"/>
    </contour>
    <contour>
      <point x="510.38666666666666" y="1385.04" type="line"/>
      <point x="101.98666666666666" y="44.96" type="line"/>
      <point x="-76.64" y="14.986666666666666" type="line"/>
      <point x="-80.76" y="0.0" type="line"/>
      <point x="385.68" y="0.0" type="line"/>
      <point x="390.05333333333334" y="14.986666666666666" type="line"/>
      <point x="222.41333333333333" y="44.96" type="line"/>
      <point x="631.4399999999999" y="1385.04" type="line"/>
      <point x="809.4399999999999" y="1415.0133333333333" type="line"/>
      <point x="814.1866666666666" y="1430.0" type="line"/>
      <point x="347.11999999999995" y="1430.0" type="line"/>
      <point x="342.37333333333333" y="1415.0133333333333" type="line"/>
    </contour>
    <contour>
      <point x="1418.9066666666668" y="1385.04" type="line"/>
      <point x="1010.5066666666667" y="44.96" type="line"/>
      <point x="831.88" y="14.986666666666666" type="line"/>
      <point x="827.76" y="0.0" type="line"/>
      <point x="1294.1999999999998" y="0.0" type="line"/>
      <point x="1298.9466666666665" y="14.986666666666666" type="line"/>
      <point x="1131.3066666666666" y="44.96" type="line"/>
      <point x="1540.3333333333333" y="1385.04" type="line"/>
      <point x="1717.96" y="1415.0133333333333" type="line"/>
      <point x="1722.7066666666667" y="1430.0" type="line"/>
      <point x="1255.64" y="1430.0" type="line"/>
      <point x="1251.2666666666667" y="1415.0133333333333" type="line"/>
    </contour>
  </outline>
</glyph>
<glyph name="Lslash" format="2">
  <advance width="1168.1466666666665"/>
  <unicode hex="0141"/>
  <outline>
    <contour>
      <point x="656.08" y="1385.04" type="line"/>
      <point x="834.08" y="1415.0133333333333" type="line"/>
      <point x="838.8266666666667" y="1430.0" type="line"/>
      <point x="371.76" y="1430.0" type="line"/>
      <point x="367.0133333333333" y="1415.0133333333333" type="line"/>
      <point x="535.0266666666666" y="1385.04" type="line"/>
      <point x="126.62666666666667" y="44.96" type="line"/>
      <point x="-52.0" y="14.986666666666666" type="line"/>
      <point x="-56.12" y="0.0" type="line"/>
      <point x="233.44" y="0.0" type="line"/>
    </contour>
    <contour>
      <point x="778.68" y="24.84" type="line"/>
      <point x="832.7866666666666" y="38.45333333333333" type="line"/>
      <point x="173.95999999999998" y="38.45333333333333" type="line"/>
      <point x="161.6" y="0.0" type="line"/>
      <point x="789.6666666666666" y="0.0" type="line"/>
      <point x="865.9066666666666" y="-50.86666666666667" type="line"/>
      <point x="872.28" y="-50.86666666666667" type="line"/>
      <point x="1105.5066666666667" y="375.0933333333333" type="line"/>
      <point x="1091.1466666666668" y="385.08" type="line"/>
    </contour>
    <contour>
      <point x="839.6800000000001" y="928.2" type="line"/>
      <point x="413.96" y="724.9733333333334" type="line"/>
      <point x="357.6933333333333" y="714.24" type="line"/>
      <point x="116.10666666666665" y="599.64" type="line"/>
      <point x="95.61333333333333" y="530.4133333333334" type="line"/>
      <point x="337.2" y="645.0133333333333" type="line"/>
      <point x="392.84" y="656.12" type="line"/>
      <point x="818.9333333333333" y="859.3466666666666" type="line"/>
    </contour>
  </outline>
</glyph>
<glyph name="lslash" format="2">
  <advance width="597.2666666666667"/>
  <unicode hex="0142"/>
  <outline>
    <contour>
      <point x="73.24000000000001" y="581.8666666666666" type="line"/>
      <point x="50.373333333333335" y="506.52" type="line"/>
      <point x="281.81333333333333" y="650.0933333333332" type="line"/>
      <point x="330.92" y="659.24" type="line"/>
      <point x="562.9466666666667" y="804.4133333333334" type="line"/>
      <point x="586.1866666666667" y="879.76" type="line"/>
      <point x="353.7866666666667" y="734.5866666666667" type="line"/>
      <point x="304.67999999999995" y="725.44" type="line"/>
    </contour>
    <contour>
      <point x="466.6533333333333" y="1357.52" type="curve"/>
      <point x="65.49333333333334" y="71.94666666666667" type="line" smooth="yes"/>
      <point x="44.133333333333326" y="3.9866666666666672"/>
      <point x="62.626666666666665" y="-20.0"/>
      <point x="118.54666666666668" y="-20.0" type="curve" smooth="yes"/>
      <point x="209.05333333333334" y="-20.0"/>
      <point x="329.7733333333333" y="58.693333333333335"/>
      <point x="500.52000000000004" y="289.15999999999997" type="curve"/>
      <point x="492.1466666666667" y="296.15999999999997" type="line"/>
      <point x="310.4266666666667" y="103.81333333333333"/>
      <point x="178.6" y="53.25333333333333"/>
      <point x="130.68" y="77.0" type="curve"/>
      <point x="156.94666666666666" y="38.74666666666666" type="line"/>
      <point x="608.7066666666666" y="1484.0" type="line"/>
      <point x="599.4399999999999" y="1484.0" type="line"/>
      <point x="297.8533333333333" y="1425.1733333333334" type="line"/>
      <point x="294.34666666666664" y="1414.16" type="line"/>
      <point x="351.34666666666664" y="1394.170544478253"/>
      <point x="430.6533333333333" y="1370.1449192768928"/>
    </contour>
  </outline>
</glyph>
<glyph name="Eng" format="2">
  <advance width="1480.4666666666667"/>
  <unicode hex="014A"/>
  <outline>
    <contour>
      <point x="1121.1466666666665" y="139.50666666666666" type="line"/>
      <point x="630.6666666666666" y="1430.0" type="line"/>
      <point x="345.26666666666665" y="1430.0" type="line"/>
      <point x="340.52" y="1415.0133333333333" type="line"/>
      <point x="507.50666666666666" y="1376.8133333333333" type="line"/>
      <point x="101.22666666666666" y="44.21333333333333" type="line"/>
      <point x="-76.77333333333334" y="14.986666666666666" type="line"/>
      <point x="-81.52000000000001" y="0.0" type="line"/>
      <point x="313.92" y="0.0" type="line"/>
      <point x="318.6666666666667" y="14.986666666666666" type="line"/>
      <point x="143.56" y="44.21333333333333" type="line"/>
      <point x="553.4666666666667" y="1387.5733333333335" type="line"/>
      <point x="530.9733333333334" y="1363.9866666666667" type="line"/>
      <point x="1063.2533333333333" y="-27.466666666666665" type="line"/>
    </contour>
    <contour>
      <point x="1076.7733333333333" y="-60.93333333333333" type="curve" smooth="yes"/>
      <point x="1517.2266666666667" y="1385.7866666666666" type="line"/>
      <point x="1695.2266666666667" y="1415.0133333333333" type="line"/>
      <point x="1699.9733333333334" y="1430.0" type="line"/>
      <point x="1304.5333333333333" y="1430.0" type="line"/>
      <point x="1299.7866666666666" y="1415.0133333333333" type="line"/>
      <point x="1474.8933333333334" y="1385.7866666666666" type="line"/>
      <point x="1042.4266666666667" y="-32.22666666666666" type="line" smooth="yes"/>
      <point x="956.9866666666667" y="-312.32"/>
      <point x="845.5066666666667" y="-390.3466666666667"/>
      <point x="713.8266666666667" y="-390.3466666666667" type="curve" smooth="yes"/>
      <point x="639.3866666666667" y="-390.3466666666667"/>
      <point x="598.5066666666667" y="-341.17333333333335"/>
      <point x="575.6533333333333" y="-341.17333333333335" type="curve" smooth="yes"/>
      <point x="545.1866666666667" y="-341.17333333333335"/>
      <point x="519.8666666666667" y="-365.0133333333334"/>
      <point x="519.8666666666667" y="-399.58666666666664" type="curve" smooth="yes"/>
      <point x="519.8666666666667" y="-438.29333333333335"/>
      <point x="550.7199999999999" y="-465.0"/>
      <point x="636.6533333333333" y="-465.0" type="curve" smooth="yes"/>
      <point x="846.9200000000001" y="-465.0"/>
      <point x="987.9733333333334" y="-351.97333333333336"/>
    </contour>
  </outline>
</glyph>
<glyph name="eng" format="2">
  <advance width="1037.3600000000001"/>
  <unicode hex="014B"/>
  <outline>
    <contour>
      <point x="320.5733333333333" y="-465.0" type="curve" smooth="yes"/>
      <point x="469.90666666666664" y="-465.0"/>
      <point x="625.6" y="-334.5733333333333"/>
      <point x="758.36" y="80.61333333333336" type="curve" smooth="yes"/>
      <point x="959.9866666666667" y="707.1600000000001" type="line" smooth="yes"/>
      <point x="992.7333333333333" y="808.9066666666666"/>
      <point x="1002.9866666666666" y="856.2666666666667"/>
      <point x="1002.9866666666666" y="893.8933333333333" type="curve" smooth="yes"/>
      <point x="1002.9866666666666" y="977.6133333333333"/>
      <point x="950.1066666666667" y="1044.0"/>
      <point x="824.6" y="1044.0" type="curve" smooth="yes"/>
      <point x="654.24" y="1044.0"/>
      <point x="512.9866666666667" y="868.0799999999999"/>
      <point x="349.44" y="546.6133333333333" type="curve"/>
      <point x="367.5733333333333" y="569.8000000000001" type="line"/>
      <point x="509.34666666666664" y="1017.24" type="line"/>
      <point x="480.37333333333333" y="1031.9866666666667"/>
      <point x="456.26666666666665" y="1039.6133333333332"/>
      <point x="415.41333333333336" y="1039.6133333333332" type="curve" smooth="yes"/>
      <point x="303.9866666666667" y="1039.6133333333332"/>
      <point x="196.36" y="958.1733333333333"/>
      <point x="56.48" y="629.6666666666666" type="curve"/>
      <point x="66.22666666666667" y="625.2933333333334" type="line"/>
      <point x="213.50666666666666" y="899.1333333333333"/>
      <point x="307.8933333333333" y="944.6"/>
      <point x="349.64" y="944.6" type="curve" smooth="yes"/>
      <point x="375.1466666666667" y="944.6"/>
      <point x="384.41333333333336" y="927.6133333333333"/>
      <point x="372.65333333333336" y="892.08" type="curve"/>
      <point x="74.50666666666666" y="0.0" type="line"/>
      <point x="179.2266666666667" y="0.0" type="line"/>
      <point x="353.34666666666664" y="521.4933333333333" type="line"/>
      <point x="426.18666666666667" y="686.12"/>
      <point x="600.4266666666667" y="953.1333333333333"/>
      <point x="781.7199999999999" y="953.1333333333333" type="curve" smooth="yes"/>
      <point x="863.24" y="953.1333333333333"/>
      <point x="894.1333333333333" y="910.36"/>
      <point x="894.1333333333333" y="861.8266666666666" type="curve" smooth="yes"/>
      <point x="894.1333333333333" y="836.8"/>
      <point x="886.0" y="795.64"/>
      <point x="854.3733333333333" y="694.5066666666667" type="curve" smooth="yes"/>
      <point x="627.28" y="-27.293333333333322" type="line" smooth="yes"/>
      <point x="529.4" y="-338.32000000000005"/>
      <point x="451.2133333333333" y="-429.90666666666664"/>
      <point x="350.62666666666667" y="-429.90666666666664" type="curve" smooth="yes"/>
      <point x="317.64" y="-429.90666666666664"/>
      <point x="306.7733333333333" y="-414.4133333333333"/>
      <point x="321.90666666666664" y="-357.05333333333334" type="curve" smooth="yes"/>
      <point x="337.03999999999996" y="-299.6933333333333"/>
      <point x="323.91999999999996" y="-280.4533333333333"/>
      <point x="281.81333333333333" y="-280.4533333333333" type="curve" smooth="yes"/>
      <point x="231.33333333333334" y="-280.4533333333333"/>
      <point x="202.97333333333333" y="-316.17333333333335"/>
      <point x="202.97333333333333" y="-361.4" type="curve" smooth="yes"/>
      <point x="202.97333333333333" y="-419.0133333333334"/>
      <point x="242.33333333333331" y="-465.0"/>
    </contour>
  </outline>
</glyph>
<glyph name="OE" format="2">
  <advance width="2097.48"/>
  <unicode hex="0152"/>
  <outline>
    <contour>
      <point x="1373.3466666666668" y="1430.0" type="line"/>
      <point x="937.72" y="0.0" type="line"/>
      <point x="1058.1466666666665" y="0.0" type="line"/>
      <point x="1494.3999999999999" y="1430.0" type="line"/>
    </contour>
    <contour>
      <point x="1112.6133333333335" y="1430.0" type="line" smooth="yes"/>
      <point x="497.38666666666666" y="1430.0"/>
      <point x="143.13333333333333" y="1017.4"/>
      <point x="143.13333333333333" y="524.9733333333334" type="curve" smooth="yes"/>
      <point x="143.13333333333333" y="193.77333333333334"/>
      <point x="389.5733333333333" y="0.0"/>
      <point x="780.24" y="0.0" type="curve" smooth="yes"/>
      <point x="1702.76" y="0.0" type="line"/>
      <point x="1779.0" y="-50.86666666666667" type="line"/>
      <point x="1785.3733333333334" y="-50.86666666666667" type="line"/>
      <point x="2014.12" y="368.37333333333333" type="line"/>
      <point x="1999.76" y="378.36" type="line"/>
      <point x="1691.7733333333333" y="24.84" type="line"/>
      <point x="1790.6799999999998" y="38.45333333333333" type="line"/>
      <point x="803.3866666666667" y="38.45333333333333" type="line"/>
      <point x="459.02666666666664" y="38.45333333333333"/>
      <point x="267.56" y="209.22666666666666"/>
      <point x="267.56" y="512.1866666666667" type="curve" smooth="yes"/>
      <point x="267.56" y="1006.92"/>
      <point x="580.7333333333333" y="1391.5466666666666"/>
      <point x="1131.8533333333332" y="1391.5466666666666" type="curve" smooth="yes"/>
      <point x="2154.28" y="1391.5466666666666" type="line"/>
      <point x="2079.4133333333334" y="1407.1599999999999" type="line"/>
      <point x="2123.8533333333335" y="1057.9466666666667" type="line"/>
      <point x="2141.5866666666666" y="1057.9466666666665" type="line"/>
      <point x="2196.7866666666664" y="1477.1066666666668" type="line"/>
      <point x="2191.666666666667" y="1477.1066666666668" type="line"/>
      <point x="2089.7866666666664" y="1430.0" type="line"/>
    </contour>
    <contour>
      <point x="1694.4" y="460.0133333333333" type="line"/>
      <point x="1749.52" y="747.2533333333333" type="line"/>
      <point x="1870.8933333333334" y="1035.8666666666666" type="line"/>
      <point x="1856.7866666666666" y="1035.8666666666666" type="line"/>
      <point x="1689.4533333333334" y="776.48" type="line"/>
      <point x="1227.3333333333335" y="758.5066666666667" type="line"/>
      <point x="1219.7066666666665" y="737.6266666666667" type="line"/>
      <point x="1677.5866666666666" y="722.4" type="line"/>
      <point x="1680.92" y="460.0133333333333" type="line"/>
    </contour>
  </outline>
</glyph>
<glyph name="Scedilla" format="2">
  <advance width="1029.3733333333334"/>
  <unicode hex="015E"/>
  <outline>
    <contour>
      <point x="1004.5466666666667" y="1287.8533333333332" type="curve"/>
      <point x="968.8133333333333" y="1359.2933333333333" type="line"/>
      <point x="1022.9999999999999" y="1026.64" type="line"/>
      <point x="1040.8666666666666" y="1026.64" type="line"/>
      <point x="1091.6" y="1481.4933333333333" type="line"/>
      <point x="1082.4933333333333" y="1481.4933333333333" type="line"/>
      <point x="988.6933333333334" y="1378.3866666666668" type="line"/>
      <point x="1060.8533333333332" y="1358.9199999999998" type="line"/>
      <point x="978.2933333333333" y="1413.0"/>
      <point x="877.2933333333333" y="1450.0"/>
      <point x="753.5866666666667" y="1450.0" type="curve" smooth="yes"/>
      <point x="472.97333333333336" y="1450.0"/>
      <point x="309.40000000000003" y="1283.88"/>
      <point x="309.40000000000003" y="1063.1733333333334" type="curve" smooth="yes"/>
      <point x="309.40000000000003" y="894.4533333333333"/>
      <point x="408.3066666666667" y="809.5733333333333"/>
      <point x="528.8133333333334" y="732.0666666666666" type="curve" smooth="yes"/>
      <point x="649.9466666666667" y="654.56"/>
      <point x="802.0266666666666" y="583.0266666666666"/>
      <point x="802.0266666666666" y="381.92" type="curve" smooth="yes"/>
      <point x="802.0266666666666" y="140.90666666666667"/>
      <point x="620.7066666666666" y="13.106666666666666"/>
      <point x="363.28" y="13.106666666666666" type="curve" smooth="yes"/>
      <point x="258.46666666666664" y="13.106666666666666"/>
      <point x="159.65333333333334" y="36.18666666666666"/>
      <point x="77.29333333333332" y="96.54666666666665" type="curve"/>
      <point x="154.86666666666665" y="15.106666666666667" type="line"/>
      <point x="64.6" y="393.5733333333333" type="line"/>
      <point x="42.866666666666674" y="393.5733333333333" type="line"/>
      <point x="42.85333333333333" y="37.61333333333333" type="line"/>
      <point x="132.34666666666666" y="-0.8800000000000001"/>
      <point x="240.44" y="-20.0"/>
      <point x="361.93333333333334" y="-20.0" type="curve" smooth="yes"/>
      <point x="688.1466666666666" y="-20.0"/>
      <point x="897.0" y="179.14666666666668"/>
      <point x="897.0" y="442.74666666666667" type="curve" smooth="yes"/>
      <point x="897.0" y="648.04"/>
      <point x="759.7866666666666" y="731.92"/>
      <point x="635.7866666666666" y="809.0533333333333" type="curve" smooth="yes"/>
      <point x="511.78666666666663" y="886.1866666666666"/>
      <point x="395.8933333333333" y="959.0799999999999"/>
      <point x="395.8933333333333" y="1123.3333333333333" type="curve" smooth="yes"/>
      <point x="395.8933333333333" y="1309.8933333333332"/>
      <point x="532.9733333333332" y="1417.16"/>
      <point x="727.72" y="1417.16" type="curve" smooth="yes"/>
      <point x="841.4133333333334" y="1417.16"/>
      <point x="941.5333333333333" y="1375.0933333333335"/>
    </contour>
    <contour>
      <point x="244.0" y="-465.0" type="curve"/>
      <point x="383.24" y="-465.0"/>
      <point x="484.97333333333336" y="-377.64"/>
      <point x="484.97333333333336" y="-275.0133333333333" type="curve" smooth="yes"/>
      <point x="484.97333333333336" y="-218.41333333333333"/>
      <point x="451.2266666666667" y="-167.04"/>
      <point x="332.74666666666667" y="-124.29333333333334" type="curve"/>
      <point x="324.90666666666664" y="-155.48000000000002" type="line"/>
      <point x="470.61333333333334" y="5.599999999999998" type="line"/>
      <point x="438.38666666666666" y="5.599999999999998" type="line"/>
      <point x="264.4266666666667" y="-182.6" type="line"/>
      <point x="264.4266666666667" y="-186.6" type="line"/>
      <point x="384.4" y="-224.22666666666666"/>
      <point x="421.6533333333333" y="-267.9733333333333"/>
      <point x="421.6533333333333" y="-316.34666666666664" type="curve" smooth="yes"/>
      <point x="421.6533333333333" y="-380.73333333333335"/>
      <point x="364.38666666666666" y="-431.0133333333333"/>
      <point x="295.88" y="-431.0133333333333" type="curve" smooth="yes"/>
      <point x="222.50666666666666" y="-431.0133333333333"/>
      <point x="201.89333333333332" y="-363.6666666666667"/>
      <point x="186.89333333333332" y="-363.6666666666667" type="curve" smooth="yes"/>
      <point x="160.28" y="-363.6666666666667"/>
      <point x="142.78666666666666" y="-383.16"/>
      <point x="142.78666666666666" y="-408.26666666666665" type="curve" smooth="yes"/>
      <point x="142.78666666666666" y="-439.1333333333333"/>
      <point x="167.90666666666664" y="-465.0"/>
    </contour>
  </outline>
</glyph>
<glyph name="uni0162" format="2">
  <advance width="1297.1733333333334"/>
  <unicode hex="0162"/>
  <outline>
    <contour>
      <point x="1433.24" y="1391.5466666666666" type="line"/>
      <point x="1371.68" y="1407.8" type="line"/>
      <point x="1393.7333333333333" y="1027.9733333333334" type="line"/>
      <point x="1416.2133333333334" y="1027.9733333333334" type="line"/>
      <point x="1500.9333333333334" y="1499.8666666666666" type="line"/>
      <point x="1490.8266666666668" y="1499.8666666666666" type="line"/>
      <point x="1367.0666666666668" y="1419.0133333333333" type="line"/>
      <point x="1421.3466666666668" y="1430.0" type="line"/>
      <point x="428.18666666666667" y="1430.0" type="line"/>
      <point x="477.08000000000004" y="1419.0133333333333" type="line"/>
      <point x="398.6933333333333" y="1499.8666666666666" type="line"/>
      <point x="389.2133333333333" y="1499.8666666666666" type="line"/>
      <point x="201.28" y="1033.2133333333334" type="line"/>
      <point x="219.89333333333332" y="1024.9733333333334" type="line"/>
      <point x="479.09333333333336" y="1407.8" type="line"/>
      <point x="395.58666666666664" y="1391.5466666666666" type="line"/>
    </contour>
    <contour>
      <point x="864.88" y="1410.0266666666666" type="line"/>
      <point x="448.73333333333335" y="44.96" type="line"/>
      <point x="270.1066666666667" y="14.986666666666666" type="line"/>
      <point x="265.9866666666667" y="0.0" type="line"/>
      <point x="732.4266666666666" y="0.0" type="line"/>
      <point x="736.8" y="14.986666666666666" type="line"/>
      <point x="569.16" y="44.96" type="line"/>
      <point x="985.9333333333334" y="1410.0266666666666" type="line"/>
    </contour>
    <contour>
      <point x="312.22666666666663" y="-465.0" type="curve"/>
      <point x="451.46666666666664" y="-465.0"/>
      <point x="553.2" y="-377.64"/>
      <point x="553.2" y="-275.0133333333333" type="curve" smooth="yes"/>
      <point x="553.2" y="-218.41333333333333"/>
      <point x="519.4533333333333" y="-167.04"/>
      <point x="400.9733333333333" y="-124.29333333333334" type="curve"/>
      <point x="393.1333333333333" y="-155.48000000000002" type="line"/>
      <point x="538.84" y="5.599999999999998" type="line"/>
      <point x="506.6133333333333" y="5.599999999999998" type="line"/>
      <point x="332.6533333333333" y="-182.6" type="line"/>
      <point x="332.6533333333333" y="-186.6" type="line"/>
      <point x="452.62666666666667" y="-224.22666666666666"/>
      <point x="489.88" y="-267.9733333333333"/>
      <point x="489.88" y="-316.34666666666664" type="curve" smooth="yes"/>
      <point x="489.88" y="-380.73333333333335"/>
      <point x="432.61333333333334" y="-431.0133333333333"/>
      <point x="364.1066666666667" y="-431.0133333333333" type="curve" smooth="yes"/>
      <point x="290.7333333333333" y="-431.0133333333333"/>
      <point x="270.12" y="-363.6666666666667"/>
      <point x="255.12" y="-363.6666666666667" type="curve" smooth="yes"/>
      <point x="228.50666666666666" y="-363.6666666666667"/>
      <point x="211.01333333333332" y="-383.16"/>
      <point x="211.01333333333332" y="-408.26666666666665" type="curve" smooth="yes"/>
      <point x="211.01333333333332" y="-439.1333333333333"/>
      <point x="236.13333333333333" y="-465.0"/>
    </contour>
  </outline>
</glyph>
<glyph name="uni0163" format="2">
  <advance width="598.92"/>
  <unicode hex="0163"/>
  <outline>
    <contour>
      <point x="146.62666666666667" y="987.6666666666666" type="line"/>
      <point x="671.3866666666667" y="987.6666666666666" type="line"/>
      <point x="680.0" y="1024.0" type="line"/>
      <point x="160.12" y="1024.0" type="line"/>
    </contour>
    <contour>
      <point x="223.14666666666668" y="249.66666666666666" type="curve" smooth="yes"/>
      <point x="550.1333333333333" y="1270.0" type="line"/>
      <point x="443.04" y="1270.0" type="line"/>
      <point x="111.26666666666667" y="235.0533333333333" type="line" smooth="yes"/>
      <point x="88.54666666666665" y="164.51999999999998"/>
      <point x="83.41333333333333" y="124.64"/>
      <point x="83.41333333333333" y="94.25333333333334" type="curve" smooth="yes"/>
      <point x="83.41333333333333" y="13.253333333333334"/>
      <point x="127.78666666666666" y="-20.0"/>
      <point x="192.42666666666668" y="-20.0" type="curve" smooth="yes"/>
      <point x="287.06666666666666" y="-20.0"/>
      <point x="385.25333333333333" y="40.16"/>
      <point x="547.1466666666666" y="309.18666666666667" type="curve"/>
      <point x="538.1466666666666" y="314.93333333333334" type="line"/>
      <point x="387.90666666666664" y="97.36"/>
      <point x="304.6666666666667" y="62.48"/>
      <point x="252.02666666666667" y="62.48" type="curve" smooth="yes"/>
      <point x="215.50666666666666" y="62.48"/>
      <point x="195.12" y="78.11999999999999"/>
      <point x="195.12" y="120.04" type="curve" smooth="yes"/>
      <point x="195.12" y="148.20000000000002"/>
      <point x="203.13333333333333" y="188.0"/>
    </contour>
    <contour>
      <point x="18.133333333333333" y="-465.0" type="curve"/>
      <point x="157.37333333333333" y="-465.0"/>
      <point x="259.1066666666667" y="-377.64"/>
      <point x="259.1066666666667" y="-275.0133333333333" type="curve" smooth="yes"/>
      <point x="259.1066666666667" y="-218.41333333333333"/>
      <point x="225.35999999999999" y="-167.04"/>
      <point x="106.88" y="-124.29333333333334" type="curve"/>
      <point x="99.04" y="-155.48000000000002" type="line"/>
      <point x="244.74666666666667" y="5.599999999999998" type="line"/>
      <point x="212.52" y="5.599999999999998" type="line"/>
      <point x="38.56" y="-182.6" type="line"/>
      <point x="38.56" y="-186.6" type="line"/>
      <point x="158.53333333333333" y="-224.22666666666666"/>
      <point x="195.78666666666666" y="-267.9733333333333"/>
      <point x="195.78666666666666" y="-316.34666666666664" type="curve" smooth="yes"/>
      <point x="195.78666666666666" y="-380.73333333333335"/>
      <point x="138.52" y="-431.0133333333333"/>
      <point x="70.01333333333334" y="-431.0133333333333" type="curve" smooth="yes"/>
      <point x="-3.3600000000000065" y="-431.0133333333333"/>
      <point x="-23.973333333333336" y="-363.6666666666667"/>
      <point x="-38.97333333333333" y="-363.6666666666667" type="curve" smooth="yes"/>
      <point x="-65.58666666666666" y="-363.6666666666667"/>
      <point x="-83.08" y="-383.16"/>
      <point x="-83.08" y="-408.26666666666665" type="curve" smooth="yes"/>
      <point x="-83.08" y="-439.1333333333333"/>
      <point x="-57.96" y="-465.0"/>
    </contour>
  </outline>
</glyph>
<glyph name="uni0259" format="2">
  <advance width="792.9466666666666"/>
  <unicode hex="0259"/>
  <outline>
    <contour>
      <point x="197.17333333333332" y="12.48" type="curve" smooth="yes"/>
      <point x="99.06666666666666" y="12.48"/>
      <point x="68.19999999999999" y="97.21333333333334"/>
      <point x="107.05333333333333" y="187.14666666666668" type="curve" smooth="yes"/>
      <point x="145.90666666666667" y="274.4933333333333"/>
      <point x="282.64" y="365.4666666666667"/>
      <point x="640.68" y="487.46666666666664" type="curve"/>
      <point x="641.04" y="507.8133333333334" type="line"/>
      <point x="428.9733333333333" y="449.44"/>
      <point x="146.93333333333334" y="342.28000000000003"/>
      <point x="37.599999999999994" y="280.12" type="curve"/>
      <point x="-4.280000000000003" y="224.25333333333333"/>
      <point x="-14.893333333333334" y="167.26666666666668"/>
      <point x="-13.64" y="119.03999999999999" type="curve" smooth="yes"/>
      <point x="-11.760000000000002" y="41.21333333333334"/>
      <point x="43.10666666666667" y="-20.0"/>
      <point x="165.81333333333333" y="-20.0" type="curve" smooth="yes"/>
      <point x="481.7866666666667" y="-20.0"/>
      <point x="747.5466666666666" y="364.3466666666667"/>
      <point x="747.5466666666666" y="778.0" type="curve" smooth="yes"/>
      <point x="747.5466666666666" y="960.4"/>
      <point x="654.4266666666667" y="1044.0"/>
      <point x="502.3333333333333" y="1044.0" type="curve" smooth="yes"/>
      <point x="363.8533333333333" y="1044.0"/>
      <point x="237.5066666666667" y="964.1466666666666"/>
      <point x="103.37333333333333" y="629.0" type="curve"/>
      <point x="113.12" y="626.3733333333333" type="line"/>
      <point x="254.68" y="903.4000000000001"/>
      <point x="366.8" y="956.36"/>
      <point x="473.41333333333336" y="956.36" type="curve" smooth="yes"/>
      <point x="581.0666666666666" y="956.36"/>
      <point x="638.0799999999999" y="897.3466666666667"/>
      <point x="638.0799999999999" y="727.1466666666666" type="curve" smooth="yes"/>
      <point x="638.0799999999999" y="390.23999999999995"/>
      <point x="427.44" y="12.48"/>
    </contour>
  </outline>
</glyph>
<glyph name="gravecomb" format="2">
  <unicode hex="0300"/>
  <anchor x="157.0" y="1024.0" name="_top"/>
  <anchor x="313.0" y="1535.0" name="top"/>
  <outline>
    <contour>
      <point x="219.86666666666667" y="1138.0" type="line"/>
      <point x="150.70666666666668" y="1464.0" type="line"/>
      <point x="22.173333333333332" y="1464.0" type="line"/>
      <point x="21.42666666666667" y="1457.2533333333333" type="line"/>
      <point x="198.76" y="1138.0" type="line"/>
    </contour>
  </outline>
</glyph>
<glyph name="acutecomb" format="2">
  <unicode hex="0301"/>
  <anchor x="157.0" y="1024.0" name="_top"/>
  <anchor x="313.0" y="1535.0" name="top"/>
  <outline>
    <contour>
      <point x="163.13333333333333" y="1138.0" type="line"/>
      <point x="187.74666666666667" y="1138.0" type="line"/>
      <point x="563.4666666666666" y="1457.2533333333333" type="line"/>
      <point x="564.2133333333333" y="1464.0" type="line"/>
      <point x="415.8" y="1464.0" type="line"/>
    </contour>
  </outline>
</glyph>
<glyph name="uni030C" format="2">
  <unicode hex="030C"/>
  <anchor x="157.0" y="1024.0" name="_top"/>
  <anchor x="291.0" y="1464.0" name="top"/>
  <outline>
    <contour>
      <point x="579.9733333333334" y="1464.0" type="line"/>
      <point x="545.0" y="1464.0" type="line"/>
      <point x="171.66666666666666" y="1207.9733333333334" type="line"/>
      <point x="229.98666666666668" y="1207.9733333333334" type="line"/>
      <point x="28.880000000000003" y="1464.0" type="line"/>
      <point x="2.2800000000000002" y="1464.0" type="line"/>
      <point x="147.42666666666668" y="1138.0" type="line"/>
      <point x="237.57333333333332" y="1138.0" type="line"/>
    </contour>
  </outline>
</glyph>
<glyph name="uni0311" format="2">
  <unicode hex="0311"/>
  <anchor x="157.0" y="1024.0" name="_top"/>
  <anchor x="291.0" y="1464.0" name="top"/>
  <outline>
    <contour>
      <point x="267.65333333333336" y="1381.44" type="curve" smooth="yes"/>
      <point x="395.0133333333333" y="1381.44"/>
      <point x="447.50666666666666" y="1311.8"/>
      <point x="441.62666666666667" y="1138.0" type="curve"/>
      <point x="470.9733333333333" y="1138.0" type="line"/>
      <point x="487.7333333333333" y="1407.3866666666668"/>
      <point x="442.25333333333333" y="1474.0"/>
      <point x="284.48" y="1474.0" type="curve" smooth="yes"/>
      <point x="140.77333333333334" y="1474.0"/>
      <point x="58.53333333333333" y="1406.64"/>
      <point x="-87.72" y="1138.0" type="curve"/>
      <point x="-53.12" y="1138.0" type="line"/>
      <point x="42.4" y="1310.1733333333334"/>
      <point x="143.4" y="1381.44"/>
    </contour>
  </outline>
</glyph>
<glyph name="uni0312" format="2">
  <unicode hex="0312"/>
  <anchor x="157.0" y="1024.0" name="_top"/>
  <anchor x="291.0" y="1464.0" name="top"/>
  <outline>
    <contour>
      <point x="327.4533333333333" y="1228.96" type="curve" smooth="yes"/>
      <point x="327.4533333333333" y="1252.3333333333333"/>
      <point x="226.45333333333332" y="1249.6680341880342"/>
      <point x="226.45333333333332" y="1311.96" type="curve" smooth="yes"/>
      <point x="226.45333333333332" y="1358.4255826558265"/>
      <point x="280.2133333333333" y="1429.2399999999998"/>
      <point x="427.37333333333333" y="1450.64" type="curve"/>
      <point x="435.49333333333334" y="1479.0" type="line"/>
      <point x="205.76" y="1450.2266666666667"/>
      <point x="126.78666666666668" y="1316.2533333333333"/>
      <point x="126.78666666666668" y="1221.3733333333334" type="curve" smooth="yes"/>
      <point x="126.78666666666668" y="1160.3733333333334"/>
      <point x="161.29754385964912" y="1127.0"/>
      <point x="214.64" y="1127.0" type="curve" smooth="yes"/>
      <point x="279.26744525547446" y="1127.0"/>
      <point x="327.4533333333333" y="1184.4666666666665"/>
    </contour>
  </outline>
</glyph>
<glyph name="dotbelowcomb" format="2">
  <unicode hex="0323"/>
  <anchor x="-157.0" y="0.0" name="_bottom"/>
  <anchor x="-299.0" y="-465.0" name="bottom"/>
  <outline>
    <contour>
      <point x="-238.24" y="-304.5733333333333" type="curve" smooth="yes"/>
      <point x="-180.26666666666665" y="-304.5733333333333"/>
      <point x="-135.93333333333334" y="-256.3466666666667"/>
      <point x="-135.93333333333334" y="-202.26666666666668" type="curve" smooth="yes"/>
      <point x="-135.93333333333334" y="-163.78666666666666"/>
      <point x="-161.29333333333332" y="-130.68"/>
      <point x="-207.38666666666666" y="-130.68" type="curve" smooth="yes"/>
      <point x="-265.7333333333333" y="-130.68"/>
      <point x="-310.06666666666666" y="-178.90666666666667"/>
      <point x="-310.06666666666666" y="-232.98666666666668" type="curve" smooth="yes"/>
      <point x="-310.06666666666666" y="-271.46666666666664"/>
      <point x="-284.70666666666665" y="-304.5733333333333"/>
    </contour>
  </outline>
</glyph>
<glyph name="uni0335" format="2">
  <unicode hex="0335"/>
  <anchor x="212.0" y="1207.0" name="_center"/>
  <outline>
    <contour>
      <point x="-85.17333333333333" y="1178.76" type="line"/>
      <point x="492.67999999999995" y="1178.76" type="line"/>
      <point x="510.1733333333334" y="1235.24" type="line"/>
      <point x="-67.68" y="1235.24" type="line"/>
    </contour>
  </outline>
</glyph>
<glyph name="daggerdbl" format="2">
  <advance width="780.9866666666667"/>
  <unicode hex="2021"/>
  <outline>
    <contour>
      <point x="597.8666666666667" y="1204.1066666666668" type="line"/>
      <point x="343.85333333333335" y="1239.9466666666667" type="line"/>
      <point x="311.50666666666666" y="1133.4133333333334" type="line"/>
      <point x="587.7466666666667" y="1169.6266666666666" type="line"/>
      <point x="843.5066666666667" y="1133.4133333333334" type="line"/>
      <point x="875.8533333333334" y="1239.9466666666667" type="line"/>
    </contour>
    <contour>
      <point x="599.72" y="1046.0" type="line"/>
      <point x="609.36" y="1186.24" type="line"/>
      <point x="729.2" y="1464.0" type="line"/>
      <point x="625.92" y="1464.0" type="line"/>
      <point x="576.2533333333333" y="1186.24" type="line"/>
      <point x="500.77333333333337" y="1046.0" type="line"/>
      <point x="490.76" y="904.76" type="line"/>
      <point x="369.92" y="627.0" type="line"/>
      <point x="473.2" y="627.0" type="line"/>
      <point x="523.24" y="904.76" type="line"/>
    </contour>
    <contour>
      <point x="501.25333333333333" y="886.8933333333333" type="line"/>
      <point x="756.76" y="851.0533333333334" type="line"/>
      <point x="789.7333333333333" y="957.5866666666667" type="line"/>
      <point x="511.74666666666667" y="921.3733333333333" type="line"/>
      <point x="257.73333333333335" y="957.5866666666667" type="line"/>
      <point x="224.76" y="851.0533333333334" type="line"/>
    </contour>
  </outline>
</glyph>
<glyph name="uni20A9" format="2">
  <advance width="1200.0"/>
  <unicode hex="20A9"/>
  <outline>
    <contour>
      <point x="833.5066666666667" y="1268.9866666666667" type="line"/>
      <point x="813.9733333333334" y="1264.6" type="line"/>
      <point x="742.4" y="-17.759999999999998" type="line"/>
      <point x="766.7333333333333" y="-17.759999999999998" type="line"/>
      <point x="1357.6133333333332" y="1389.52" type="line"/>
      <point x="1484.7466666666667" y="1415.0133333333333" type="line"/>
      <point x="1490.8666666666666" y="1430.0" type="line"/>
      <point x="1209.6399999999999" y="1430.0" type="line"/>
      <point x="1204.1466666666665" y="1415.0133333333333" type="line"/>
      <point x="1318.0133333333335" y="1391.0133333333333" type="line"/>
      <point x="841.24" y="243.38666666666666" type="line"/>
      <point x="856.3466666666666" y="243.38666666666666" type="line"/>
      <point x="926.28" y="1448.3866666666668" type="line"/>
      <point x="901.32" y="1448.3866666666668" type="line"/>
      <point x="227.53333333333336" y="234.93333333333334" type="line"/>
      <point x="249.86666666666665" y="234.93333333333334" type="line"/>
      <point x="467.8266666666667" y="1389.8933333333334" type="line"/>
      <point x="598.7066666666666" y="1415.0133333333333" type="line"/>
      <point x="604.4533333333333" y="1430.0" type="line"/>
      <point x="252.51999999999998" y="1430.0" type="line"/>
      <point x="247.4" y="1415.0133333333333" type="line"/>
      <point x="361.38666666666666" y="1389.8933333333332" type="line"/>
      <point x="98.60000000000001" y="-17.759999999999998" type="line"/>
      <point x="123.30666666666666" y="-17.759999999999998" type="line"/>
    </contour>
    <contour>
      <point x="1221.4933333333333" y="584.24" type="line"/>
      <point x="10.24" y="584.24" type="line"/>
      <point x="-3.88" y="538.1333333333333" type="line"/>
      <point x="1207.3733333333332" y="538.1333333333333" type="line"/>
    </contour>
    <contour>
      <point x="1318.8666666666668" y="902.24" type="line"/>
      <point x="107.24" y="902.24" type="line"/>
      <point x="93.12" y="855.76" type="line"/>
      <point x="1304.3733333333334" y="855.76" type="line"/>
    </contour>
  </outline>
</glyph>
<glyph name="minus" format="2">
  <advance width="1150.0"/>
  <unicode hex="2212"/>
  <outline>
    <contour>
      <point x="172.12" y="538.1066666666667" type="line"/>
      <point x="155.88" y="485.8933333333333" type="line"/>
      <point x="977.88" y="485.8933333333333" type="line"/>
      <point x="994.12" y="538.1066666666667" type="line"/>
    </contour>
  </outline>
</glyph>
<glyph name="lessequal" format="2">
  <advance width="1150.0"/>
  <unicode hex="2264"/>
  <outline>
    <contour>
      <point x="238.96" y="624.6266666666667" type="line"/>
      <point x="1140.8933333333332" y="971.0400000000001" type="line"/>
      <point x="1160.506666666667" y="1036.0" type="line"/>
      <point x="211.62666666666667" y="666.36" type="line"/>
      <point x="195.38666666666666" y="611.64" type="line"/>
      <point x="918.5066666666667" y="242.0" type="line"/>
      <point x="934.12" y="295.46666666666664" type="line"/>
      <point x="246.21333333333334" y="647.88" type="line"/>
    </contour>
    <contour>
      <point x="24.493333333333332" y="52.21333333333333" type="line"/>
      <point x="7.88" y="0.0" type="line"/>
      <point x="843.88" y="0.0" type="line"/>
      <point x="860.4933333333333" y="52.21333333333333" type="line"/>
    </contour>
  </outline>
</glyph>
<glyph name="fl" format="2">
  <advance width="965.3866666666667"/>
  <unicode hex="FB02"/>
  <outline>
    <contour>
      <point x="133.62666666666667" y="987.6666666666666" type="line"/>
      <point x="686.08" y="987.6666666666666" type="line"/>
      <point x="693.2" y="1024.0" type="line"/>
      <point x="140.74666666666667" y="1024.0" type="line"/>
    </contour>
    <contour>
      <point x="275.17333333333335" y="302.17333333333335" type="curve" smooth="yes"/>
      <point x="459.49333333333334" y="1032.1866666666667" type="line" smooth="yes"/>
      <point x="540.5200000000001" y="1352.5333333333333"/>
      <point x="651.3866666666667" y="1456.28"/>
      <point x="776.8266666666667" y="1456.28" type="curve" smooth="yes"/>
      <point x="841.5733333333334" y="1456.28"/>
      <point x="881.4533333333334" y="1422.64"/>
      <point x="904.1333333333334" y="1356.5733333333335" type="curve" smooth="yes"/>
      <point x="502.7466666666666" y="71.94666666666667" type="line" smooth="yes"/>
      <point x="481.38666666666666" y="3.9866666666666672"/>
      <point x="499.88000000000005" y="-20.0"/>
      <point x="555.8000000000001" y="-20.0" type="curve" smooth="yes"/>
      <point x="646.3066666666666" y="-20.0"/>
      <point x="767.0266666666666" y="58.693333333333335"/>
      <point x="937.7733333333333" y="289.15999999999997" type="curve"/>
      <point x="929.4000000000001" y="296.15999999999997" type="line"/>
      <point x="783.04" y="141.17333333333335"/>
      <point x="668.4933333333333" y="78.26666666666667"/>
      <point x="604.4533333333334" y="71.50666666666666" type="curve"/>
      <point x="1045.96" y="1484.0" type="line"/>
      <point x="1036.6933333333334" y="1484.0" type="line"/>
      <point x="927.68" y="1437.5066666666667" type="line"/>
      <point x="981.0533333333334" y="1433.2666666666667" type="line"/>
      <point x="930.4533333333334" y="1472.6266666666668"/>
      <point x="888.0933333333332" y="1484.0"/>
      <point x="820.2800000000001" y="1484.0" type="curve" smooth="yes"/>
      <point x="614.4533333333334" y="1484.0"/>
      <point x="426.05333333333334" y="1343.5600000000002"/>
      <point x="335.26666666666665" y="965.0799999999999" type="curve" smooth="yes"/>
      <point x="147.18666666666667" y="175.0" type="line" smooth="yes"/>
      <point x="26.226666666666667" y="-326.5466666666667"/>
      <point x="-64.62666666666667" y="-432.4133333333333"/>
      <point x="-167.65333333333334" y="-432.4133333333333" type="curve" smooth="yes"/>
      <point x="-202.02666666666667" y="-432.4133333333333"/>
      <point x="-212.65333333333334" y="-415.9066666666667"/>
      <point x="-196.02666666666667" y="-351.68" type="curve" smooth="yes"/>
      <point x="-179.4" y="-287.4533333333334"/>
      <point x="-191.38666666666666" y="-264.33333333333337"/>
      <point x="-234.98666666666668" y="-264.33333333333337" type="curve" smooth="yes"/>
      <point x="-287.96" y="-264.33333333333337"/>
      <point x="-318.6933333333333" y="-306.56"/>
      <point x="-318.6933333333333" y="-355.7866666666667" type="curve" smooth="yes"/>
      <point x="-318.6933333333333" y="-417.88"/>
      <point x="-274.46666666666664" y="-465.0"/>
      <point x="-188.73333333333335" y="-465.0" type="curve" smooth="yes"/>
      <point x="-27.773333333333337" y="-465.0"/>
      <point x="120.22666666666666" y="-309.84"/>
    </contour>
  </outline>
</glyph>
<glyph name="f_f_l" format="2">
  <advance width="1400.32"/>
  <unicode hex="FB04"/>
  <outline>
    <contour>
      <point x="133.62666666666667" y="987.6666666666666" type="line"/>
      <point x="1121.0133333333333" y="987.6666666666666" type="line"/>
      <point x="1128.1333333333332" y="1024.0" type="line"/>
      <point x="140.74666666666667" y="1024.0" type="line"/>
    </contour>
    <contour>
      <point x="-3.746666666666666" y="-320.46666666666664" type="line"/>
      <point x="44.50666666666667" y="-396.0"/>
      <point x="106.37333333333333" y="-425.0"/>
      <point x="198.95999999999998" y="-425.0" type="curve" smooth="yes"/>
      <point x="388.28000000000003" y="-425.0"/>
      <point x="567.5466666666666" y="-262.17333333333335"/>
      <point x="710.1066666666667" y="302.17333333333335" type="curve" smooth="yes"/>
      <point x="894.4266666666666" y="1032.1866666666667" type="line" smooth="yes"/>
      <point x="975.08" y="1350.6666666666665"/>
      <point x="1085.5733333333333" y="1456.28"/>
      <point x="1211.7600000000002" y="1456.28" type="curve" smooth="yes"/>
      <point x="1276.5066666666667" y="1456.28"/>
      <point x="1316.3866666666668" y="1422.64"/>
      <point x="1339.0666666666666" y="1356.5733333333335" type="curve" smooth="yes"/>
      <point x="937.6800000000001" y="71.94666666666667" type="line" smooth="yes"/>
      <point x="916.3199999999999" y="3.9866666666666672"/>
      <point x="934.8133333333333" y="-20.0"/>
      <point x="990.7333333333333" y="-20.0" type="curve" smooth="yes"/>
      <point x="1081.24" y="-20.0"/>
      <point x="1201.9599999999998" y="58.693333333333335"/>
      <point x="1372.7066666666667" y="289.15999999999997" type="curve"/>
      <point x="1364.3333333333333" y="296.15999999999997" type="line"/>
      <point x="1217.9733333333334" y="141.17333333333335"/>
      <point x="1103.4266666666667" y="78.26666666666667"/>
      <point x="1039.3866666666665" y="71.50666666666666" type="curve"/>
      <point x="1480.8933333333334" y="1484.0" type="line"/>
      <point x="1471.6266666666668" y="1484.0" type="line"/>
      <point x="1362.6133333333335" y="1437.5066666666667" type="line"/>
      <point x="1415.9866666666667" y="1433.2666666666667" type="line"/>
      <point x="1365.3866666666665" y="1472.6266666666666"/>
      <point x="1323.0266666666666" y="1484.0"/>
      <point x="1255.2133333333334" y="1484.0" type="curve" smooth="yes"/>
      <point x="1050.2533333333333" y="1484.0"/>
      <point x="860.7333333333333" y="1342.4266666666667"/>
      <point x="770.2" y="965.0799999999999" type="curve" smooth="yes"/>
      <point x="582.12" y="175.0" type="line" smooth="yes"/>
      <point x="473.41333333333336" y="-276.41333333333336"/>
      <point x="352.5733333333333" y="-394.6533333333333"/>
      <point x="216.05333333333334" y="-394.6533333333333" type="curve" smooth="yes"/>
      <point x="130.54666666666665" y="-394.6533333333333"/>
      <point x="87.17333333333335" y="-338.66666666666663"/>
      <point x="71.8" y="-217.45333333333335" type="curve"/>
    </contour>
    <contour>
      <point x="275.17333333333335" y="302.17333333333335" type="curve" smooth="yes"/>
      <point x="459.4933333333333" y="1032.1866666666667" type="line" smooth="yes"/>
      <point x="532.52" y="1321.16"/>
      <point x="643.92" y="1418.04"/>
      <point x="755.4533333333334" y="1418.04" type="curve" smooth="yes"/>
      <point x="842.72" y="1418.04"/>
      <point x="893.4533333333334" y="1373.4133333333332"/>
      <point x="929.5066666666667" y="1265.08" type="curve"/>
      <point x="1001.0933333333334" y="1350.7333333333333" type="line"/>
      <point x="955.6" y="1417.7333333333333"/>
      <point x="895.3733333333333" y="1449.6266666666668"/>
      <point x="802.7333333333333" y="1449.6266666666668" type="curve" smooth="yes"/>
      <point x="610.32" y="1449.6266666666668"/>
      <point x="416.8" y="1304.8000000000002"/>
      <point x="335.26666666666665" y="965.08" type="curve" smooth="yes"/>
      <point x="147.18666666666667" y="175.0" type="line" smooth="yes"/>
      <point x="26.226666666666667" y="-326.5466666666667"/>
      <point x="-64.62666666666667" y="-432.4133333333333"/>
      <point x="-167.65333333333334" y="-432.4133333333333" type="curve" smooth="yes"/>
      <point x="-202.02666666666667" y="-432.4133333333333"/>
      <point x="-212.65333333333334" y="-415.9066666666667"/>
      <point x="-196.02666666666667" y="-351.68" type="curve" smooth="yes"/>
      <point x="-179.4" y="-287.4533333333334"/>
      <point x="-191.38666666666666" y="-264.33333333333337"/>
      <point x="-234.98666666666668" y="-264.33333333333337" type="curve" smooth="yes"/>
      <point x="-287.96" y="-264.33333333333337"/>
      <point x="-318.6933333333333" y="-306.56"/>
      <point x="-318.6933333333333" y="-355.7866666666667" type="curve" smooth="yes"/>
      <point x="-318.6933333333333" y="-417.88"/>
      <point x="-274.46666666666664" y="-465.0"/>
      <point x="-188.73333333333335" y="-465.0" type="curve" smooth="yes"/>
      <point x="-27.773333333333337" y="-465.0"/>
      <point x="120.22666666666666" y="-309.84"/>
    </contour>
  </outline>
</glyph>
<glyph name="Euro.lf" format="2">
  <advance width="1355.08"/>
  <outline>
    <contour>
      <point x="980.9333333333333" y="584.24" type="line"/>
      <point x="119.0" y="584.24" type="line"/>
      <point x="104.88" y="538.1333333333333" type="line"/>
      <point x="966.8133333333333" y="538.1333333333333" type="line"/>
    </contour>
    <contour>
      <point x="1077.9333333333334" y="902.24" type="line"/>
      <point x="216.0" y="902.24" type="line"/>
      <point x="201.5066666666667" y="855.76" type="line"/>
      <point x="1063.8133333333335" y="855.76" type="line"/>
    </contour>
    <contour>
      <point x="1133.8133333333333" y="1418.6533333333334" type="curve" smooth="yes"/>
      <point x="1327.96" y="1418.6533333333334"/>
      <point x="1360.8" y="1239.96"/>
      <point x="1407.7466666666667" y="1239.96" type="curve" smooth="yes"/>
      <point x="1452.9466666666667" y="1239.96"/>
      <point x="1480.92" y="1270.0533333333333"/>
      <point x="1480.92" y="1306.0133333333333" type="curve" smooth="yes"/>
      <point x="1480.92" y="1364.64"/>
      <point x="1402.4799999999998" y="1450.0"/>
      <point x="1165.8" y="1450.0" type="curve" smooth="yes"/>
      <point x="658.3733333333333" y="1450.0"/>
      <point x="325.17333333333335" y="915.9333333333333"/>
      <point x="325.17333333333335" y="450.7733333333333" type="curve" smooth="yes"/>
      <point x="325.17333333333335" y="156.73333333333332"/>
      <point x="474.68" y="-20.0"/>
      <point x="756.9333333333334" y="-20.0" type="curve" smooth="yes"/>
      <point x="1019.2266666666667" y="-20.0"/>
      <point x="1152.2" y="56.8"/>
      <point x="1152.2" y="121.8" type="curve" smooth="yes"/>
      <point x="1152.2" y="147.89333333333335"/>
      <point x="1132.8533333333332" y="170.49333333333334"/>
      <point x="1103.6266666666668" y="170.49333333333334" type="curve" smooth="yes"/>
      <point x="1060.3066666666666" y="170.49333333333334"/>
      <point x="943.6533333333333" y="10.09333333333333"/>
      <point x="750.44" y="10.09333333333333" type="curve" smooth="yes"/>
      <point x="554.3333333333333" y="10.09333333333333"/>
      <point x="443.62666666666667" y="148.38666666666666"/>
      <point x="443.62666666666667" y="418.73333333333335" type="curve" smooth="yes"/>
      <point x="443.62666666666667" y="920.56"/>
      <point x="762.4" y="1418.6533333333334"/>
    </contour>
  </outline>
</glyph>
<glyph name="acutecomb.case" format="2">
  <anchor x="281.0" y="1430.0" name="_UCtop"/>
  <anchor x="437.0" y="1941.0" name="UCtop"/>
  <outline>
    <contour>
      <point x="282.12" y="1544.0" type="line"/>
      <point x="306.73333333333335" y="1544.0" type="line"/>
      <point x="682.4533333333334" y="1863.2533333333333" type="line"/>
      <point x="683.2" y="1870.0" type="line"/>
      <point x="534.7866666666666" y="1870.0" type="line"/>
    </contour>
  </outline>
</glyph>
<glyph name="cent.lf" format="2">
  <advance width="902.6800000000001"/>
  <outline>
    <contour>
      <point x="87.25333333333333" y="0.0" type="line"/>
      <point x="133.49333333333334" y="0.0" type="line"/>
      <point x="1029.6133333333332" y="1430.0" type="line"/>
      <point x="982.3733333333334" y="1430.0" type="line"/>
    </contour>
    <contour>
      <point x="735.0666666666667" y="1215.2666666666667" type="curve" smooth="yes"/>
      <point x="790.08" y="1215.2666666666667"/>
      <point x="804.7066666666667" y="1192.3866666666665"/>
      <point x="792.3599999999999" y="1125.6933333333332" type="curve" smooth="yes"/>
      <point x="780.0133333333333" y="1059.0"/>
      <point x="794.6133333333333" y="1037.8933333333334"/>
      <point x="842.0666666666666" y="1037.8933333333332" type="curve" smooth="yes"/>
      <point x="892.2533333333333" y="1037.8933333333334"/>
      <point x="933.3733333333333" y="1082.1066666666666"/>
      <point x="933.3733333333333" y="1134.7066666666667" type="curve" smooth="yes"/>
      <point x="933.3733333333333" y="1195.1599999999999"/>
      <point x="885.7733333333333" y="1244.0"/>
      <point x="767.8133333333333" y="1244.0" type="curve" smooth="yes"/>
      <point x="449.81333333333333" y="1244.0"/>
      <point x="178.58666666666664" y="840.5733333333334"/>
      <point x="178.58666666666664" y="446.0" type="curve" smooth="yes"/>
      <point x="178.58666666666664" y="261.72"/>
      <point x="269.96" y="180.0"/>
      <point x="421.18666666666667" y="180.0" type="curve" smooth="yes"/>
      <point x="570.9333333333333" y="180.0"/>
      <point x="684.3866666666667" y="262.46666666666664"/>
      <point x="816.2800000000001" y="595.0" type="curve"/>
      <point x="806.5333333333333" y="597.6266666666667" type="line"/>
      <point x="670.8533333333334" y="332.74666666666667"/>
      <point x="573.6533333333333" y="269.52000000000004"/>
      <point x="455.62666666666667" y="269.52000000000004" type="curve" smooth="yes"/>
      <point x="345.96" y="269.52000000000004"/>
      <point x="290.56" y="324.7733333333333"/>
      <point x="290.56" y="498.1066666666667" type="curve" smooth="yes"/>
      <point x="290.56" y="832.4266666666666"/>
      <point x="503.4133333333334" y="1215.2666666666667"/>
    </contour>
  </outline>
</glyph>
<glyph name="colonmonetary.lf.1" format="2">
  <advance width="1104.32"/>
  <outline>
    <contour>
      <point x="884.0133333333333" y="1417.4" type="curve" smooth="yes"/>
      <point x="1087.7333333333333" y="1417.4"/>
      <point x="1113.7066666666667" y="1245.6"/>
      <point x="1163.76" y="1245.6" type="curve" smooth="yes"/>
      <point x="1211.4666666666667" y="1245.6"/>
      <point x="1238.1866666666667" y="1272.56"/>
      <point x="1238.1866666666667" y="1314.7866666666666" type="curve" smooth="yes"/>
      <point x="1238.1866666666667" y="1374.6666666666665"/>
      <point x="1162.6133333333332" y="1450.0"/>
      <point x="921.3466666666666" y="1450.0" type="curve" smooth="yes"/>
      <point x="477.24" y="1450.0"/>
      <point x="142.49333333333334" y="956.6266666666667"/>
      <point x="142.49333333333334" y="429.84" type="curve" smooth="yes"/>
      <point x="142.49333333333334" y="126.84"/>
      <point x="293.73333333333335" y="-20.0"/>
      <point x="509.81333333333333" y="-20.0" type="curve" smooth="yes"/>
      <point x="674.9066666666668" y="-20.0"/>
      <point x="806.7466666666667" y="47.13333333333334"/>
      <point x="956.4266666666666" y="254.90666666666664" type="curve"/>
      <point x="943.9333333333333" y="265.4" type="line"/>
      <point x="802.4523609836724" y="104.62089300704723"/>
      <point x="703.8266666666667" y="79.09333333333333"/>
      <point x="577.1999999999999" y="79.09333333333333" type="curve" smooth="yes"/>
      <point x="388.06666666666666" y="79.09333333333333"/>
      <point x="258.3066666666667" y="208.52"/>
      <point x="258.3066666666667" y="477.44000000000005" type="curve" smooth="yes"/>
      <point x="258.3066666666667" y="918.7866666666666"/>
      <point x="517.7733333333333" y="1417.4"/>
    </contour>
    <contour>
      <point x="934.7466666666667" y="1430.52" type="line"/>
      <point x="1041.9866666666667" y="1638.0" type="line"/>
      <point x="993.1199999999999" y="1638.0" type="line"/>
      <point x="885.88" y="1430.52" type="line"/>
    </contour>
    <contour>
      <point x="1095.8799999999999" y="1387.2666666666667" type="line"/>
      <point x="1225.7466666666667" y="1638.0" type="line"/>
      <point x="1176.5066666666667" y="1638.0" type="line"/>
      <point x="1046.64" y="1387.2666666666667" type="line"/>
    </contour>
    <contour>
      <point x="109.12" y="-208.0" type="line"/>
      <point x="157.98666666666665" y="-208.0" type="line"/>
      <point x="344.73333333333335" y="153.49333333333334" type="line"/>
      <point x="295.8666666666666" y="153.49333333333334" type="line"/>
    </contour>
    <contour>
      <point x="292.88" y="-208.0" type="line"/>
      <point x="342.74666666666667" y="-208.0" type="line"/>
      <point x="479.33333333333326" y="57.42666666666666" type="line"/>
      <point x="429.4666666666667" y="57.42666666666666" type="line"/>
    </contour>
  </outline>
</glyph>
<glyph name="three.lf" format="2">
  <advance width="999.8666666666667"/>
  <outline>
    <contour>
      <point x="314.90666666666664" y="25.48" type="curve" smooth="yes"/>
      <point x="142.64" y="25.48"/>
      <point x="84.53333333333333" y="143.48"/>
      <point x="41.84" y="143.48" type="curve" smooth="yes"/>
      <point x="7.853333333333332" y="143.48"/>
      <point x="-19.226666666666663" y="115.86666666666665"/>
      <point x="-19.226666666666663" y="75.41333333333334" type="curve" smooth="yes"/>
      <point x="-19.226666666666663" y="24.453333333333333"/>
      <point x="36.25333333333334" y="-20.0"/>
      <point x="205.76" y="-20.0" type="curve" smooth="yes"/>
      <point x="634.5733333333333" y="-20.0"/>
      <point x="893.7333333333332" y="231.39999999999998"/>
      <point x="893.7333333333332" y="510.2533333333334" type="curve" smooth="yes"/>
      <point x="893.7333333333332" y="677.7866666666666"/>
      <point x="792.1066666666666" y="809.2533333333333"/>
      <point x="587.16" y="807.36" type="curve"/>
      <point x="580.5333333333333" y="800.24" type="line"/>
      <point x="827.8666666666666" y="883.0"/>
      <point x="965.3466666666667" y="1014.1066666666667"/>
      <point x="965.3466666666667" y="1190.52" type="curve" smooth="yes"/>
      <point x="965.3466666666667" y="1332.8496062992126"/>
      <point x="870.4933333333333" y="1450.0"/>
      <point x="672.1733333333333" y="1450.0" type="curve" smooth="yes"/>
      <point x="471.6933333333334" y="1450.0"/>
      <point x="320.9372584012149" y="1324.6573487190044"/>
      <point x="255.86666666666667" y="1077.1866666666667" type="curve"/>
      <point x="274.36" y="1072.8133333333333" type="line"/>
      <point x="338.97333333333336" y="1283.72"/>
      <point x="474.12" y="1367.4933333333333"/>
      <point x="627.76" y="1367.4933333333333" type="curve" smooth="yes"/>
      <point x="771.7733333333333" y="1367.4933333333333"/>
      <point x="849.3866666666667" y="1277.0933333333332"/>
      <point x="849.3866666666667" y="1158.96" type="curve" smooth="yes"/>
      <point x="849.3866666666667" y="985.0533333333334"/>
      <point x="718.7349583792479" y="836.5239278502695"/>
      <point x="380.64" y="760.4533333333334" type="curve"/>
      <point x="382.8933333333333" y="731.8533333333334" type="line"/>
      <point x="451.49333333333334" y="748.1333333333333" type="line" smooth="yes"/>
      <point x="655.8666666666667" y="789.28"/>
      <point x="771.68" y="694.12"/>
      <point x="771.68" y="497.59999999999997" type="curve" smooth="yes"/>
      <point x="771.68" y="226.29333333333332"/>
      <point x="565.04" y="25.48"/>
    </contour>
  </outline>
</glyph>
<glyph name="two.lf" format="2">
  <advance width="1044.8266666666668"/>
  <outline>
    <contour>
      <point x="251.76000000000002" y="1018.8133333333333" type="line"/>
      <point x="341.2583515045146" y="1273.9912601569106"/>
      <point x="484.7466666666667" y="1358.76"/>
      <point x="649.0133333333333" y="1358.76" type="curve" smooth="yes"/>
      <point x="823.3333333333334" y="1358.76"/>
      <point x="920.1066666666667" y="1261.8758506224065"/>
      <point x="920.1066666666667" y="1109.64" type="curve" smooth="yes"/>
      <point x="920.1066666666667" y="977.5066666666667"/>
      <point x="855.7333333333333" y="830.1866666666667"/>
      <point x="554.4399999999999" y="560.48" type="curve" smooth="yes"/>
      <point x="-51.86666666666667" y="16.373333333333335" type="line"/>
      <point x="-56.866666666666674" y="0.0" type="line"/>
      <point x="667.0666666666667" y="0.0" type="line"/>
      <point x="733.16" y="-20.0" type="line"/>
      <point x="744.52" y="-20.0" type="line"/>
      <point x="935.8" y="362.49333333333334" type="line"/>
      <point x="917.6933333333333" y="362.49333333333334" type="line"/>
      <point x="671.3866666666667" y="87.45333333333333" type="line"/>
      <point x="715.1333333333333" y="103.45333333333332" type="line"/>
      <point x="69.53333333333333" y="103.45333333333332" type="line"/>
      <point x="75.89333333333332" y="92.08" type="line"/>
      <point x="580.6533333333334" y="523.2666666666667" type="line" smooth="yes"/>
      <point x="952.08" y="834.0533333333334"/>
      <point x="1042.72" y="962.7066666666666"/>
      <point x="1042.72" y="1144.0800000000002" type="curve" smooth="yes"/>
      <point x="1042.72" y="1334.68"/>
      <point x="905.6266666666667" y="1450.0"/>
      <point x="706.0533333333333" y="1450.0" type="curve" smooth="yes"/>
      <point x="487.19999999999993" y="1450.0"/>
      <point x="318.90996247613316" y="1307.6044310574448"/>
      <point x="233.77333333333334" y="1024.1866666666667" type="curve"/>
    </contour>
  </outline>
</glyph>
<glyph name="uni0302_hookabovecomb.case" format="2">
  <anchor x="281.0" y="1430.0" name="_UCtop"/>
  <outline>
    <contour>
      <point x="611.3466666666666" y="1773.9866666666667" type="curve"/>
      <point x="618.3466666666667" y="1750.1333333333334" type="line"/>
      <point x="831.84" y="1811.4"/>
      <point x="888.4266666666667" y="1880.8666666666666"/>
      <point x="888.4266666666667" y="1965.24" type="curve" smooth="yes"/>
      <point x="888.4266666666667" y="2044.8533333333335"/>
      <point x="824.4266666666666" y="2099.6266666666666"/>
      <point x="637.08" y="2114.2400000000002" type="curve"/>
      <point x="614.8533333333334" y="2027.44" type="line"/>
      <point x="771.1333333333333" y="2018.8133333333333"/>
      <point x="816.3866666666667" y="1981.5333333333333"/>
      <point x="816.3866666666667" y="1930.4" type="curve" smooth="yes"/>
      <point x="816.3866666666667" y="1881.52"/>
      <point x="783.1733333333333" y="1827.1466666666668"/>
    </contour>
    <contour>
      <point x="27.02666666666667" y="1544.0" type="line"/>
      <point x="60.88" y="1544.0" type="line"/>
      <point x="434.21333333333337" y="1800.0266666666666" type="line"/>
      <point x="375.8933333333333" y="1800.0266666666666" type="line"/>
      <point x="577.0" y="1544.0" type="line"/>
      <point x="604.72" y="1544.0" type="line"/>
      <point x="459.5733333333333" y="1870.0" type="line"/>
      <point x="369.4266666666667" y="1870.0" type="line"/>
    </contour>
  </outline>
</glyph>
<glyph name="uni0306_acutecomb.case" format="2">
  <anchor x="281.0" y="1430.0" name="_UCtop"/>
  <outline>
    <contour>
      <point x="340.62666666666667" y="1721.0" type="line"/>
      <point x="367.8666666666667" y="1721.0" type="line"/>
      <point x="716.3333333333334" y="1993.2533333333333" type="line"/>
      <point x="717.4533333333334" y="2004.0" type="line"/>
      <point x="576.92" y="2004.0" type="line"/>
    </contour>
    <contour>
      <point x="325.36" y="1586.08" type="curve" smooth="yes"/>
      <point x="209.37333333333333" y="1586.08"/>
      <point x="145.61333333333334" y="1623.3333333333335"/>
      <point x="143.74666666666667" y="1742.0" type="curve"/>
      <point x="118.89333333333335" y="1742.0" type="line"/>
      <point x="116.13333333333334" y="1547.1333333333334"/>
      <point x="168.25333333333333" y="1499.2666666666667"/>
      <point x="310.88" y="1499.2666666666667" type="curve" smooth="yes"/>
      <point x="432.8666666666667" y="1499.2666666666667"/>
      <point x="512.24" y="1545.2666666666667"/>
      <point x="633.1066666666667" y="1742.0" type="curve"/>
      <point x="603.0" y="1742.0" type="line"/>
      <point x="528.36" y="1622.96"/>
      <point x="441.71999999999997" y="1586.08"/>
    </contour>
  </outline>
</glyph>
<glyph name="uni0306_acutecomb" format="2">
  <anchor x="157.0" y="1024.0" name="_top"/>
  <outline>
    <contour>
      <point x="216.62666666666667" y="1315.0" type="line"/>
      <point x="243.86666666666667" y="1315.0" type="line"/>
      <point x="592.3333333333334" y="1587.2533333333333" type="line"/>
      <point x="593.4533333333334" y="1598.0" type="line"/>
      <point x="452.92" y="1598.0" type="line"/>
    </contour>
    <contour>
      <point x="201.35999999999999" y="1180.08" type="curve" smooth="yes"/>
      <point x="85.37333333333333" y="1180.08"/>
      <point x="21.613333333333333" y="1217.3333333333333"/>
      <point x="19.746666666666666" y="1336.0" type="curve"/>
      <point x="-5.106666666666666" y="1336.0" type="line"/>
      <point x="-7.866666666666664" y="1141.1333333333332"/>
      <point x="44.25333333333333" y="1093.2666666666667"/>
      <point x="186.88" y="1093.2666666666667" type="curve" smooth="yes"/>
      <point x="308.8666666666667" y="1093.2666666666667"/>
      <point x="388.24" y="1139.2666666666669"/>
      <point x="509.1066666666666" y="1336.0" type="curve"/>
      <point x="479.0" y="1336.0" type="line"/>
      <point x="404.36" y="1216.96"/>
      <point x="317.71999999999997" y="1180.08"/>
    </contour>
  </outline>
</glyph>
<glyph name="uni0311.case" format="2">
  <anchor x="281.0" y="1430.0" name="_UCtop"/>
  <anchor x="415.0" y="1870.0" name="UCtop"/>
  <outline>
    <contour>
      <point x="391.6533333333333" y="1787.4399999999998" type="curve" smooth="yes"/>
      <point x="519.0133333333333" y="1787.4399999999998"/>
      <point x="571.5066666666667" y="1717.8"/>
      <point x="565.6266666666667" y="1544.0" type="curve"/>
      <point x="594.9733333333334" y="1544.0" type="line"/>
      <point x="611.7333333333333" y="1813.3866666666665"/>
      <point x="566.2533333333333" y="1880.0"/>
      <point x="408.48" y="1880.0" type="curve" smooth="yes"/>
      <point x="264.7733333333333" y="1880.0"/>
      <point x="182.53333333333333" y="1812.64"/>
      <point x="36.28" y="1544.0" type="curve"/>
      <point x="70.88" y="1544.0" type="line"/>
      <point x="166.39999999999998" y="1716.1733333333334"/>
      <point x="267.4" y="1787.4399999999998"/>
    </contour>
  </outline>
</glyph>
<glyph name="uni20BD.lf" format="2">
  <advance width="1194.1866666666667"/>
  <outline>
    <contour>
      <point x="1048.4133333333332" y="556.8666666666667" type="line"/>
      <point x="114.86666666666666" y="556.8666666666667" type="line"/>
      <point x="100.74666666666667" y="510.76" type="line"/>
      <point x="1033.92" y="510.76" type="line"/>
    </contour>
    <contour>
      <point x="581.1333333333333" y="1382.4266666666665" type="line"/>
      <point x="172.85333333333335" y="44.959999999999994" type="line"/>
      <point x="-10.266666666666667" y="14.986666666666666" type="line"/>
      <point x="-15.013333333333334" y="0.0" type="line"/>
      <point x="450.8" y="0.0" type="line"/>
      <point x="455.17333333333335" y="14.986666666666666" type="line"/>
      <point x="289.66666666666663" y="44.959999999999994" type="line"/>
      <point x="712.68" y="1430.0" type="line"/>
      <point x="408.8" y="1430.0" type="line"/>
      <point x="404.05333333333334" y="1415.0133333333333" type="line"/>
    </contour>
    <contour>
      <point x="789.1600000000001" y="831.8666666666667" type="curve" smooth="yes"/>
      <point x="198.86666666666667" y="831.8666666666667" type="line"/>
      <point x="184.74666666666667" y="785.76" type="line"/>
      <point x="796.2133333333334" y="785.76" type="line" smooth="yes"/>
      <point x="1138.3333333333333" y="785.76"/>
      <point x="1300.9333333333334" y="964.5200000000001"/>
      <point x="1300.9333333333334" y="1184.1333333333332" type="curve" smooth="yes"/>
      <point x="1300.9333333333334" y="1322.4"/>
      <point x="1212.5733333333335" y="1430.0"/>
      <point x="947.4266666666666" y="1430.0" type="curve" smooth="yes"/>
      <point x="669.3866666666667" y="1430.0" type="line"/>
      <point x="642.2666666666667" y="1395.6533333333334" type="line"/>
      <point x="913.9066666666666" y="1395.6533333333334" type="line" smooth="yes"/>
      <point x="1109.72" y="1395.6533333333334"/>
      <point x="1186.4933333333333" y="1321.3866666666668"/>
      <point x="1186.4933333333333" y="1197.24" type="curve" smooth="yes"/>
      <point x="1186.4933333333333" y="986.1733333333333"/>
      <point x="1057.0800000000002" y="831.8666666666667"/>
    </contour>
  </outline>
</glyph>
